<svg width="104.04mm" height="125.73mm" version="1.1" viewBox="0 0 104.04 125.73" xmlns="http://www.w3.org/2000/svg" xmlns:xlink="http://www.w3.org/1999/xlink">
 <defs>
  <linearGradient id="linearGradient932" x1="74.902" x2="290.1" y1="85.828" y2="355.17" gradientUnits="userSpaceOnUse">
   <stop stop-color="#125d98" offset="0"/>
   <stop stop-color="#f5a962" offset="1"/>
  </linearGradient>
 </defs>
 <g transform="translate(-65.622 -80.226)">
  <path transform="matrix(.26458 0 0 .26458 65.622 80.226)" d="m195.5 0.0039062a12.285 12.285 0 0 0-11.988 14.566c0.05072-0.052302 0.03711 0.21875 0.03711 0.21875a12.285 12.285 0 0 1-0.03711-0.21875c-0.04022 0.041475-0.1179 0.26865-0.29492 1.1191-0.40007 1.923-1.5334 5.4833-5.2422 10.572-7.4177 10.178-25.577 26.433-67.861 43.826-62.004 25.504-90.325 62.639-95.307 100.29-4.1726 31.535 7.375 61.096 23.238 84.789-15.668 8.441-25.429 21.731-30.664 33.529-6.8357 15.404-7.3672 29.438-7.3672 29.438a12.285 12.285 0 0 0-0.015625 0.51758v144.09a12.285 12.285 0 1 0 24.566 0v-143.64c0.00378-0.08012 0.46449-9.6146 5.2715-20.447 4.8272-10.878 12.822-21.657 30.066-25.902a12.285 12.285 0 0 0 6.5762-19.703c-17.541-21.472-31.037-51.312-27.312-79.459 3.7243-28.147 23.368-57.372 80.293-80.787 43.395-17.85 65.6-35.468 77.148-50.479 11.549 15.011 33.753 32.629 77.148 50.479 56.925 23.415 76.569 52.64 80.293 80.787 3.7243 28.147-9.7736 57.987-27.314 79.459a12.285 12.285 0 0 0 6.5781 19.703c17.245 4.2449 25.239 15.024 30.066 25.902 4.7839 10.781 5.2553 20.218 5.2637 20.389v57.936a12.285 12.285 0 0 0-0.62696 0.6621s-50.083 55.451-104.26 39.648c-39.048-11.389-72.482-9.2752-96.164-4.5332l14.799-21.141c5.7272 1.2888 11.656 1.9874 17.748 2.0215 53.342 0.29843 94.723-50.065 95.344-109.9a12.285 12.285 0 0 0 0.01562-0.21485c0.00114-0.1536 0.04214-0.29539 0.04297-0.44922a12.285 12.285 0 0 0-0.00781-0.45898 12.285 12.285 0 0 0 0.00781-0.2207c0-0.05783-0.01359-0.1121-0.01367-0.16992a12.285 12.285 0 0 0 0-0.00782v-0.01367c-0.08961-60.049-41.299-110.95-94.785-111.05-53.544-0.09985-94.943 50.772-95.1 110.91-0.11281 43.351 21.222 82.03 53.199 100.36l-31.918 45.598a12.285 12.285 0 0 0 15.791 17.916s46.319-24.838 114.16-5.0508c71.977 20.993 129.66-47.08 129.66-47.08a12.285 12.285 0 0 0 1.6816-2.4844 12.285 12.285 0 0 0 4.998-10.051v-62.613a12.285 12.285 0 0 0-0.00781-0.51758s-0.53934-14.033-7.375-29.438c-5.2361-11.8-14.993-25.089-30.664-33.529 15.864-23.693 27.411-53.253 23.238-84.789-4.9817-37.65-33.294-74.785-95.299-100.29-42.284-17.393-60.451-33.648-67.869-43.826-3.7088-5.089-4.8421-8.6493-5.2422-10.572-0.1761-0.8465-0.25218-1.0737-0.29101-1.1172a12.285 12.285 0 0 1-0.0332 0.2168s-0.01618-0.27207 0.0332-0.2168a12.285 12.285 0 0 0-12.354-14.568 12.285 12.285 0 0 0-0.67382 0.050781 12.285 12.285 0 0 0-1.1719-0.050781zm5.1973 195.72c37.667 0.07023 70.275 37.623 70.275 86.678a12.285 12.285 0 0 0 0.00781 0.33984 12.285 12.285 0 0 0-0.00781 0.21289c-0.25535 49.054-33.031 86.336-70.697 86.125-0.69142-0.00387-1.3806-0.02377-2.0684-0.05273l8.6387-12.342a12.285 12.285 0 0 0-10.018-19.465 12.285 12.285 0 0 0-10.113 5.3809l-13.652 19.504c-24.848-13.091-42.951-43.363-42.855-79.977 0.12764-49.055 32.824-86.475 70.49-86.404z" color="#000000" color-rendering="auto" dominant-baseline="auto" fill="url(#linearGradient932)" fill-rule="evenodd" image-rendering="auto" shape-rendering="auto" solid-color="#000000" style="font-feature-settings:normal;font-variant-alternates:normal;font-variant-caps:normal;font-variant-ligatures:normal;font-variant-numeric:normal;font-variant-position:normal;isolation:auto;mix-blend-mode:normal;shape-padding:0;text-decoration-color:#000000;text-decoration-line:none;text-decoration-style:solid;text-indent:0;text-orientation:mixed;text-transform:none;white-space:normal"/>
 </g>
</svg>
