<svg width="44.097mm" height="67.214mm" version="1.1" viewBox="0 0 44.097 67.214" xmlns="http://www.w3.org/2000/svg">
 <g transform="translate(-61.106 -88.905)" fill="#fff">
  <path d="m97.932 109.1c-0.0328-0.0342-0.078-0.0536-0.12559-0.0543h-7.9e-4c-0.0469 0-0.0924 0.0187-0.12489 0.0522l-1.5727 1.6006v-3.2717c0-0.0466-0.019-0.0917-0.0526-0.12453l-1.627-1.6009 1.6291-1.669c0.0325-0.0328 0.0505-0.0769 0.0505-0.12277v-3.2501l1.5942 1.3522c0.0698 0.0586 0.17286 0.0543 0.23707-0.0102l1.753-1.7614 1.6316 1.6394-1.8472 1.9089c-0.049 0.0505-0.0632 0.12524-0.036 0.18979 0.0275 0.0646 0.091 0.1069 0.16122 0.1069h3.7758l1.5787 1.6164-1.5762 1.5505h-3.7782c-0.0723 0-0.13723 0.0452-0.16298 0.11183-0.0265 0.0674-8e-3 0.14429 0.0452 0.19262l1.8348 1.6736-1.627 1.7036-1.76-1.8334m-5.3268-5.2613v-3.5574c0-0.0684-0.0395-0.13053-0.10125-0.15875-0.0621-0.0286-0.13511-0.0187-0.18662 0.0254l-1.76 1.4915-1.6461-1.6538 1.7628-1.8461c0.0325-0.0339 0.0501-0.0801 0.0483-0.127-2e-3 -0.0469-0.0222-0.0921-0.0568-0.12347l-1.6337-1.4894h3.3983c0.0459 0 0.09-0.018 0.12276-0.0504l1.6284-1.6027 1.6288 1.6027c0.0328 0.0324 0.0769 0.0504 0.12312 0.0504h3.3962l-1.6415 1.4891c-0.0349 0.0317-0.0557 0.0765-0.0571 0.12382-2e-3 0.0473 0.0159 0.0931 0.0487 0.127l1.7716 1.8464-1.6461 1.6535-1.759-1.4915c-0.0522-0.0444-0.12524-0.054-0.18662-0.0254-0.0621 0.0282-0.1016 0.0903-0.1016 0.15875v3.5574l-1.5766 1.6147-1.5762-1.6147m-0.29774 3.4636c-0.0335 0.0328-0.0522 0.078-0.0522 0.12453v3.2731l-1.5833-1.602c-0.0332-0.0339-0.0762-0.0487-0.12594-0.0522-0.0476 7.1e-4 -0.0924 0.0201-0.12488 0.0543l-1.7533 1.8366-1.6383-1.7067 1.844-1.6729c0.0536-0.049 0.0716-0.12524 0.0455-0.19297-0.0257-0.067-0.091-0.11218-0.16334-0.11218h-3.7779l-1.5762-1.5505 1.5783-1.6164h3.7778c0.0967 0 0.17533-0.079 0.17533-0.17533 0-0.0561-0.0265-0.10583-0.0674-0.13794l-1.8323-1.8923 1.6341-1.6418 1.7558 1.7639c0.0642 0.0646 0.16757 0.0688 0.23707 0.0102l1.5946-1.3522v3.2501c0 0.0459 0.0176 0.09 0.0494 0.12277l1.6298 1.669-1.627 1.6009m-5.4024-9.4051c-0.0325-0.0339-0.078-0.0529-0.12523-0.0533-0.0505 0-0.0924 0.018-0.12559 0.0522l-1.573 1.5998v-3.271c0-0.0473-0.0187-0.0921-0.0526-0.12524l-1.627-1.6009 1.6295-1.669c0.0321-0.0325 0.0501-0.0765 0.0501-0.12206v-3.2508l1.5946 1.3518c0.0695 0.0593 0.17286 0.0547 0.23671-0.01l1.7554-1.7642 1.6348 1.6422-1.8482 1.9085c-0.0487 0.0508-0.0624 0.12559-0.0353 0.19014 0.0279 0.0646 0.0914 0.1069 0.16122 0.1069h3.7761l1.578 1.6161-1.5759 1.5508h-3.7782c-0.072 0-0.13688 0.0448-0.16298 0.11219-0.0261 0.0667-9e-3 0.14358 0.0451 0.19261l1.8344 1.6729-1.6291 1.7067-1.7628-1.8369m9.102-5.0144h3.7778c0.097 0 0.17498-0.0787 0.17498-0.17498 0-0.0561-0.0261-0.10619-0.0674-0.13794l-1.8316-1.8926 1.6316-1.6397 1.753 1.7618c0.0638 0.0642 0.16756 0.0688 0.23706 0.01l1.5942-1.3518v3.2508c0 0.0455 0.018 0.0896 0.0504 0.12206l1.6295 1.669-1.627 1.6009c-0.0335 0.0332-0.0529 0.078-0.0529 0.12524v3.2727l-1.5826-1.6023c-0.0332-0.0335-0.0797-0.0483-0.12629-0.0515-0.0473 3.5e-4 -0.0921 0.0198-0.12489 0.054l-1.7508 1.8334-1.6355-1.7039 1.8436-1.6729c0.0536-0.0487 0.072-0.12594 0.0459-0.19227-0.0265-0.0677-0.091-0.11253-0.16334-0.11253h-3.7779l-1.5762-1.5508 1.5783-1.6161m3.9268 18.306 1.7625-1.8464c0.0321-0.0342 0.0497-0.0797 0.048-0.127-2e-3 -0.0473-0.0219-0.0917-0.0571-0.12312l-1.633-1.4901h3.398c0.0459 0 0.09-0.018 0.12311-0.0497l1.6281-1.6023v-0.49636l-1.626-1.6658c-0.0332-0.0339-0.078-0.0526-0.12523-0.0526h-3.4368l1.6803-1.7357c0.066-0.0684 0.0653-0.17745-2e-3 -0.24483l-1.7596-1.7688 1.638-1.7159 1.7561 1.7769c0.0494 0.0505 0.12489 0.0656 0.19086 0.0392 0.0656-0.0268 0.1083-0.091 0.1083-0.16192v-3.6259l1.5762-1.5515v-0.49566l-1.5762-1.6143v-3.5574c0-0.0681-0.0395-0.13053-0.10125-0.15945-0.0621-0.0282-0.13476-0.018-0.18697 0.0261l-1.7593 1.4916-1.5296-1.5371h-0.71473l-1.6436 1.6517c-0.0674 0.0677-0.0681 0.17639-2e-3 0.24553l1.6803 1.735h-3.4368c-0.0476 0-0.0928 0.019-0.12559 0.0526l-1.6263 1.6658-1.626-1.6658c-0.0328-0.0335-0.0783-0.0526-0.12524-0.0526h-3.4368l1.6799-1.735c0.066-0.0691 0.0653-0.1778-2e-3 -0.24553l-1.6437-1.6517h-0.71932l-1.53 1.5371-1.7593-1.4916c-0.0519-0.0441-0.12453-0.0543-0.18662-0.0261-0.0621 0.0289-0.10124 0.0914-0.10124 0.15945v3.5574l-1.5766 1.6143v0.49566l1.5766 1.5515v3.6258c0 0.0709 0.0427 0.13512 0.1083 0.16192 0.066 0.0268 0.14182 0.0109 0.1912-0.0392l1.747-1.7769 1.6464 1.7163-1.7596 1.7685c-0.0667 0.0674-0.0681 0.17638-2e-3 0.24482l1.6803 1.7357h-3.4368c-0.0473 0-0.0924 0.0187-0.12559 0.0526l-1.626 1.6658v0.49636l1.6288 1.6023c0.0325 0.0318 0.0766 0.0497 0.12277 0.0497h3.3962l-1.6415 1.4894c-0.0346 0.0317-0.0554 0.0759-0.0572 0.12383-2e-3 0.0473 0.0159 0.0928 0.049 0.127l1.7713 1.8464-0.11571 0.11677h0.71931l-0.11641-0.11677 1.6383-1.7163 1.7558 1.7769c0.0504 0.0505 0.12559 0.0656 0.19085 0.0388 0.0663-0.0272 0.10901-0.0907 0.10901-0.16192v-3.6255l1.5762-1.5508 1.5766 1.5508v3.6255c0 0.0713 0.043 0.13511 0.10865 0.16192 0.066 0.0272 0.14147 0.0116 0.19121-0.0392l1.7462-1.7766 1.6471 1.7163-0.11607 0.11677h0.71473l-0.11606-0.11677"/>
  <path d="m97.932 131.51c-0.0328-0.0342-0.078-0.054-0.12559-0.0543h-7.9e-4c-0.0469 0-0.0924 0.0187-0.12489 0.0522l-1.5727 1.6006v-3.2717c0-0.0466-0.019-0.0917-0.0526-0.12453l-1.627-1.6009 1.6291-1.6694c0.0325-0.0324 0.0505-0.0765 0.0505-0.12241v-3.2501l1.5942 1.3522c0.0698 0.0586 0.17286 0.0543 0.23707-0.0106l1.753-1.7611 1.6316 1.6394-1.8472 1.9089c-0.049 0.0505-0.0632 0.12488-0.036 0.18979 0.0275 0.0646 0.091 0.10689 0.16122 0.10689h3.7758l1.5787 1.6164-1.5762 1.5505h-3.7782c-0.0723 0-0.13723 0.0448-0.16298 0.11183-0.0265 0.0674-8e-3 0.14429 0.0452 0.19262l1.8348 1.6736-1.627 1.7036-1.76-1.8334m-5.3269-5.2613v-3.5574c0-0.0684-0.0395-0.13017-0.10125-0.1591-0.0621-0.0282-0.13511-0.0183-0.18662 0.0257l-1.76 1.4916-1.6461-1.6538 1.7628-1.8461c0.0325-0.0339 0.0501-0.0801 0.0483-0.127-2e-3 -0.0469-0.0222-0.0921-0.0568-0.12347l-1.6337-1.4894h3.3983c0.0459 0 0.09-0.018 0.12276-0.0505l1.6284-1.6027 1.6288 1.6027c0.0328 0.0325 0.0769 0.0505 0.12312 0.0505h3.3962l-1.6415 1.4891c-0.0349 0.0317-0.0557 0.0765-0.0571 0.12382-2e-3 0.0473 0.0159 0.0931 0.0487 0.127l1.7716 1.8464-1.6461 1.6535-1.759-1.4915c-0.0522-0.0448-0.12524-0.054-0.18662-0.0257-0.0621 0.0289-0.1016 0.0907-0.1016 0.1591v3.5574l-1.5766 1.6147-1.5762-1.6147m-0.29774 3.4636c-0.0335 0.0328-0.0522 0.078-0.0522 0.12453v3.2731l-1.5833-1.602c-0.0332-0.0339-0.0762-0.0487-0.12594-0.0522-0.0476 2.7e-4 -0.0924 0.0201-0.12488 0.0543l-1.7533 1.8366-1.6383-1.7067 1.844-1.6729c0.0536-0.049 0.0716-0.12523 0.0455-0.19297-0.0257-0.0674-0.091-0.11218-0.16334-0.11218h-3.7778l-1.5762-1.5505 1.5783-1.6164h3.7778c0.0967 0 0.17533-0.079 0.17533-0.17533 0-0.0565-0.0265-0.10583-0.0674-0.13793l-1.8323-1.8923 1.6341-1.6422 1.7558 1.7639c0.0642 0.0649 0.16757 0.0692 0.23707 0.0106l1.5946-1.3522v3.2501c0 0.0459 0.0176 0.09 0.0494 0.12241l1.6298 1.6694-1.627 1.6009m-5.4024-9.4054c-0.0325-0.0335-0.078-0.0529-0.12524-0.0533-0.0505 0-0.0924 0.0183-0.12559 0.0526l-1.573 1.5998v-3.2713c0-0.0469-0.0187-0.0917-0.0526-0.12488l-1.627-1.6009 1.6295-1.6694c0.0321-0.0321 0.0501-0.0762 0.0501-0.12171v-3.2508l1.5946 1.3518c0.0695 0.0593 0.17286 0.0547 0.23672-0.01l1.7554-1.7646 1.6348 1.6425-1.8482 1.9085c-0.0487 0.0504-0.0624 0.12524-0.0353 0.19015 0.0279 0.0646 0.0914 0.10689 0.16122 0.10689h3.7761l1.578 1.6161-1.5759 1.5505h-3.7782c-0.072 0-0.13688 0.0448-0.16298 0.11253-0.0261 0.0667-9e-3 0.14359 0.0451 0.19262l1.8344 1.6729-1.6291 1.7067-1.7628-1.8373m9.1021-5.014h3.7778c0.097 0 0.17498-0.0787 0.17498-0.17497 0-0.0561-0.0261-0.10619-0.0674-0.13829l-1.8316-1.8923 1.6316-1.6401 1.753 1.7621c0.0639 0.0642 0.16757 0.0688 0.23707 0.01l1.5942-1.3518v3.2508c0 0.0455 0.018 0.0896 0.0504 0.12171l1.6295 1.6694-1.627 1.6009c-0.0335 0.0332-0.0529 0.078-0.0529 0.12488v3.2731l-1.5826-1.6023c-0.0332-0.0335-0.0797-0.0487-0.1263-0.0519-0.0473 2.6e-4 -0.0921 0.0201-0.12488 0.0543l-1.7508 1.8334-1.6355-1.7039 1.8436-1.6729c0.0536-0.0487 0.072-0.12595 0.0459-0.19227-0.0265-0.0681-0.091-0.11289-0.16333-0.11289h-3.7779l-1.5762-1.5504 1.5783-1.6161m3.9268 18.306 1.7625-1.8468c0.0321-0.0342 0.0497-0.0797 0.048-0.12665-2e-3 -0.0473-0.0219-0.0917-0.0571-0.12347l-1.633-1.4901h3.398c0.0459 0 0.09-0.0177 0.12311-0.0494l1.6281-1.6023v-0.49636l-1.626-1.6658c-0.0332-0.0342-0.078-0.0526-0.12523-0.0526h-3.4368l1.6803-1.7357c0.066-0.0684 0.0653-0.17745-2e-3 -0.24483l-1.7596-1.7688 1.638-1.7163 1.7561 1.7776c0.0494 0.0501 0.12489 0.0653 0.19086 0.0388 0.0656-0.0268 0.1083-0.091 0.1083-0.16192v-3.6262l1.5762-1.5512v-0.49565l-1.5762-1.6147v-3.5574c0-0.0681-0.0395-0.13017-0.10125-0.1591-0.0621-0.0286-0.13476-0.018-0.18697 0.0261l-1.7593 1.4915-1.5296-1.537h-0.71472l-1.6436 1.6514c-0.0674 0.0681-0.0681 0.17675-2e-3 0.24554l1.6803 1.7353h-3.4368c-0.0476 0-0.0928 0.019-0.12558 0.0526l-1.6263 1.6658-1.626-1.6658c-0.0328-0.0335-0.0783-0.0526-0.12524-0.0526h-3.4368l1.6799-1.7353c0.066-0.0688 0.0653-0.17745-2e-3 -0.24554l-1.644-1.6514h-0.71931l-1.53 1.537-1.7593-1.4915c-0.0519-0.0441-0.12453-0.0547-0.18662-0.0261-0.0621 0.0289-0.10125 0.091-0.10125 0.1591v3.5574l-1.5766 1.6147v0.49565l1.5766 1.5512v3.6262c0 0.0709 0.0427 0.13511 0.1083 0.16192 0.066 0.0268 0.14182 0.0109 0.19121-0.0388l1.747-1.7776 1.6464 1.7166-1.7597 1.7685c-0.0667 0.0674-0.0681 0.17639-2e-3 0.24483l1.6803 1.7357h-3.4358c-0.0473 0-0.0924 0.0183-0.12559 0.0526l-1.626 1.6658v0.49636l1.6288 1.6023c0.0325 0.0318 0.0765 0.0494 0.12277 0.0494h3.3962l-1.6415 1.4898c-0.0346 0.0317-0.0554 0.0759-0.0571 0.12382-2e-3 0.0469 0.0159 0.0924 0.049 0.127l1.7713 1.8464-0.11571 0.11677h0.71931l-0.11641-0.11677 1.6383-1.7163 1.7558 1.7766c0.0505 0.0508 0.12559 0.066 0.19086 0.0392 0.0663-0.0272 0.10901-0.0907 0.10901-0.16192v-3.6255l1.5762-1.5508 1.5766 1.5508v3.6255c0 0.0713 0.043 0.13511 0.10865 0.16192 0.066 0.0272 0.14147 0.0116 0.19121-0.0395l1.7462-1.7762 1.6471 1.7163-0.11606 0.11677h0.71472l-0.11606-0.11677"/>
  <path d="m97.932 153.91c-0.0328-0.0339-0.078-0.0536-0.12559-0.054h-7.9e-4c-0.0469 0-0.0924 0.0187-0.12489 0.0522l-1.5727 1.6006v-3.2717c0-0.0469-0.019-0.0921-0.0526-0.12453l-1.627-1.6009 1.6291-1.6693c0.0325-0.0328 0.0505-0.0769 0.0505-0.12277v-3.2501l1.5942 1.3526c0.0698 0.0586 0.17286 0.0543 0.23707-0.0106l1.753-1.7614 1.6316 1.6397-1.8472 1.9089c-0.049 0.0501-0.0632 0.12488-0.036 0.1898 0.0275 0.0642 0.091 0.10689 0.16122 0.10689h3.7758l1.5787 1.6164-1.5762 1.5504h-3.7782c-0.0723 0-0.13723 0.0448-0.16298 0.11148-0.0265 0.0677-8e-3 0.14464 0.0452 0.19262l1.8348 1.6739-1.627 1.7036-1.76-1.8337m-5.3269-5.2613v-3.5574c0-0.0681-0.0395-0.13017-0.10125-0.15875-0.0621-0.0282-0.13511-0.0187-0.18662 0.0254l-1.76 1.4919-1.6461-1.6542 1.7628-1.8457c0.0325-0.0342 0.0501-0.0804 0.0483-0.127-2e-3 -0.0469-0.0222-0.0921-0.0568-0.12347l-1.6337-1.4898h3.3983c0.0459 0 0.09-0.0176 0.12276-0.0501l1.6284-1.6027 1.6288 1.6027c0.0328 0.0325 0.0769 0.0501 0.12312 0.0501h3.3962l-1.6415 1.4894c-0.0349 0.0317-0.0557 0.0765-0.0571 0.12383-2e-3 0.0469 0.0159 0.0928 0.0487 0.127l1.7716 1.8461-1.6461 1.6538-1.759-1.4919c-0.0522-0.0444-0.12524-0.0536-0.18662-0.0254-0.0621 0.0286-0.1016 0.0907-0.1016 0.15875v3.5574l-1.5766 1.6147-1.5762-1.6147m-0.29774 3.4639c-0.0335 0.0325-0.0522 0.0776-0.0522 0.12453v3.2731l-1.5833-1.602c-0.0332-0.0339-0.0762-0.0487-0.12594-0.0522-0.0476 2.6e-4 -0.0924 0.0201-0.12488 0.054l-1.7533 1.8366-1.6383-1.7064 1.844-1.6732c0.0536-0.0487 0.0716-0.12489 0.0455-0.19297-0.0257-0.067-0.091-0.11183-0.16334-0.11183h-3.7778l-1.5762-1.5505 1.5783-1.6164h3.7778c0.0967 0 0.17533-0.079 0.17533-0.17568 0-0.0561-0.0265-0.10548-0.0674-0.13759l-1.8323-1.8923 1.6341-1.6422 1.7558 1.7639c0.0642 0.0649 0.16757 0.0691 0.23707 0.0106l1.5946-1.3526v3.2501c0 0.0459 0.0176 0.09 0.0494 0.12277l1.6298 1.6693-1.627 1.6009m-5.4024-9.4054c-0.0325-0.0335-0.078-0.0529-0.12524-0.0533-0.0505 0-0.0924 0.0183-0.12559 0.0526l-1.573 1.5998v-3.2713c0-0.0473-0.0187-0.0921-0.0526-0.12488l-1.627-1.6009 1.6295-1.6693c0.0321-0.0325 0.0501-0.0765 0.0501-0.12171v-3.2508l1.5946 1.3518c0.0695 0.0593 0.17286 0.0547 0.23672-0.01l1.7554-1.7642 1.6348 1.6425-1.8482 1.9085c-0.0487 0.0505-0.0624 0.12524-0.0353 0.19015 0.0279 0.0646 0.0914 0.10689 0.16122 0.10689h3.7761l1.578 1.6161-1.5759 1.5505h-3.7782c-0.072 0-0.13688 0.0448-0.16298 0.11253-0.0261 0.0667-9e-3 0.14358 0.0451 0.19227l1.8344 1.6732-1.6291 1.7067-1.7628-1.8373m9.102-5.014h3.7778c0.097 0 0.17498-0.0787 0.17498-0.17497 0-0.0564-0.0261-0.10619-0.0674-0.13829l-1.8316-1.8923 1.6316-1.6401 1.753 1.7618c0.0639 0.0646 0.16757 0.0691 0.23707 0.01l1.5942-1.3518v3.2508c0 0.0451 0.018 0.0892 0.0504 0.12171l1.6295 1.6693-1.627 1.6009c-0.0335 0.0328-0.0529 0.0776-0.0529 0.12488v3.2731l-1.5826-1.6023c-0.0332-0.0335-0.0797-0.0487-0.1263-0.0519-0.0473 2.6e-4 -0.0921 0.0201-0.12488 0.054l-1.7508 1.8337-1.6355-1.7039 1.8436-1.6732c0.0536-0.0483 0.072-0.12559 0.0459-0.19191-0.0265-0.0681-0.091-0.11289-0.16333-0.11289h-3.7779l-1.5762-1.5504 1.5783-1.6161m3.9268 18.305 1.7625-1.8464c0.0321-0.0342 0.0497-0.0797 0.048-0.127-2e-3 -0.0469-0.0219-0.0914-0.0571-0.12312l-1.633-1.4901h3.398c0.0459 0 0.09-0.0177 0.12311-0.0494l1.6281-1.6023v-0.49672l-1.626-1.6655c-0.0332-0.0342-0.078-0.0529-0.12523-0.0529h-3.4368l1.6803-1.7357c0.066-0.0681 0.0653-0.17745-2e-3 -0.24448l-1.7596-1.7692 1.638-1.7159 1.7561 1.7773c0.0494 0.0504 0.12489 0.0656 0.19086 0.0392 0.0656-0.0272 0.1083-0.091 0.1083-0.16192v-3.6262l1.5762-1.5512v-0.49565l-1.5762-1.6147v-3.5574c0-0.0681-0.0395-0.13017-0.10125-0.1591-0.0621-0.0286-0.13476-0.0183-0.18697 0.0257l-1.7593 1.4919-1.5296-1.537h-0.71473l-1.6436 1.6514c-0.0674 0.0681-0.0681 0.17674-2e-3 0.24553l1.6803 1.7353h-3.4368c-0.0476 0-0.0928 0.019-0.12559 0.0526l-1.6263 1.6658-1.626-1.6658c-0.0328-0.0335-0.0783-0.0526-0.12524-0.0526h-3.4368l1.6799-1.7353c0.066-0.0688 0.0653-0.17744-2e-3 -0.24553l-1.644-1.6514h-0.71931l-1.53 1.537-1.7593-1.4919c-0.0519-0.0441-0.12453-0.0543-0.18662-0.0257-0.0621 0.0289-0.10125 0.091-0.10125 0.15911v3.5574l-1.5766 1.6147v0.49566l1.5766 1.5512v3.6262c0 0.0709 0.0427 0.13476 0.10831 0.16193 0.066 0.0268 0.14181 0.0109 0.1912-0.0392l1.747-1.7773 1.6464 1.7163-1.7597 1.7688c-0.0667 0.067-0.0681 0.17638-2e-3 0.24447l1.6803 1.7357h-3.4365c-0.0473 0-0.0924 0.0187-0.12559 0.0529l-1.626 1.6655v0.49671l1.6288 1.6023c0.0325 0.0317 0.0765 0.0494 0.12277 0.0494h3.3962l-1.6415 1.4898c-0.0346 0.0318-0.0554 0.0759-0.0572 0.12347-2e-3 0.0473 0.0159 0.0928 0.049 0.12735l1.7713 1.8461-0.11572 0.11677h0.71932l-0.11642-0.11677 1.6383-1.7159 1.7558 1.7766c0.0504 0.0508 0.12559 0.066 0.19085 0.0392 0.0663-0.0275 0.10901-0.0907 0.10901-0.16193v-3.6255l1.5762-1.5508 1.5766 1.5508v3.6255c0 0.0713 0.043 0.13476 0.10866 0.16193 0.066 0.0272 0.14146 0.0116 0.1912-0.0395l1.7462-1.7762 1.6471 1.7159-0.11606 0.11677h0.71473l-0.11607-0.11677"/>
  <path d="m75.884 109.1c-0.0328-0.0342-0.078-0.0536-0.12559-0.0543h-7.1e-4c-0.0469 0-0.0921 0.0187-0.12489 0.0522l-1.5728 1.6006v-3.2717c0-0.0466-0.0191-0.0917-0.0524-0.12453l-1.6272-1.6009 1.6293-1.669c0.0324-0.0328 0.0503-0.0769 0.0503-0.12277v-3.2501l1.5943 1.3522c0.0698 0.0586 0.17322 0.0543 0.23707-0.0102l1.753-1.7614 1.6316 1.6394-1.8472 1.9089c-0.049 0.0505-0.0632 0.12524-0.036 0.18979 0.0275 0.0646 0.091 0.1069 0.16122 0.1069h3.7758l1.5787 1.6164-1.5762 1.5505h-3.7782c-0.0723 0-0.13723 0.0452-0.16298 0.11183-0.0265 0.0674-8e-3 0.14429 0.0451 0.19262l1.8348 1.6736-1.627 1.7036zm-5.3269-5.2613v-3.5574c0-0.0684-0.0396-0.13053-0.10128-0.15875-0.062-0.0286-0.13508-0.0187-0.18673 0.0254l-1.7598 1.4915-1.6461-1.6538 1.7625-1.8461c0.0326-0.0339 0.0503-0.0801 0.0485-0.127-2e-3 -0.0469-0.0223-0.0921-0.0568-0.12347l-1.6336-1.4894h3.3982c0.0459 0 0.09-0.018 0.12262-0.0504l1.6284-1.6027 1.6288 1.6027c0.0328 0.0324 0.0769 0.0504 0.12308 0.0504h3.3963l-1.6415 1.4891c-0.0349 0.0317-0.0557 0.0765-0.0571 0.12382-2e-3 0.0473 0.0159 0.0931 0.0487 0.127l1.7716 1.8464-1.6461 1.6535-1.759-1.4915c-0.0521-0.0444-0.12499-0.054-0.18673-0.0254-0.062 0.0282-0.10156 0.0903-0.10156 0.15875v3.5574l-1.5766 1.6147zm-0.29767 3.4636c-0.0338 0.0328-0.0524 0.078-0.0524 0.12453v3.2731l-1.5834-1.602c-0.0331-0.0339-0.0761-0.0487-0.1258-0.0522-0.0474 7.1e-4 -0.0926 0.0201-0.12499 0.0543l-1.7533 1.8366-1.6381-1.7067 1.8438-1.6729c0.0538-0.049 0.0717-0.12524 0.0455-0.19297-0.0258-0.067-0.091-0.11219-0.16327-0.11219h-3.7779l-1.5761-1.5505 1.5781-1.6164h3.7778c0.0967 0 0.1753-0.079 0.1753-0.17533 0-0.0561-0.0265-0.10584-0.0675-0.13794l-1.8321-1.8923 1.6339-1.6418 1.756 1.7639c0.0641 0.0646 0.16743 0.0688 0.237 0.0102l1.5944-1.3522v3.2502c0 0.0459 0.0176 0.09 0.0496 0.12276l1.6295 1.669zm-5.4026-9.4051c-0.0324-0.0339-0.0779-0.0529-0.12499-0.0533-0.0507 0-0.0928 0.018-0.12584 0.0522l-1.573 1.5998v-3.2713c0-0.0469-0.0186-0.0917-0.0523-0.12489l-1.627-1.6009 1.6294-1.669c0.0321-0.0325 0.05-0.0765 0.05-0.12206v-3.2508l1.5944 1.3518c0.0696 0.0593 0.17293 0.0547 0.23699-0.01l1.7552-1.7642 1.6348 1.6422-1.848 1.9085c-0.0489 0.0508-0.0627 0.12559-0.0354 0.19015 0.0279 0.0646 0.0912 0.10689 0.16126 0.10689h3.7761l1.5778 1.6161-1.5758 1.5508h-3.7781c-0.0721 0-0.13684 0.0448-0.16302 0.11218-0.0262 0.0667-8e-3 0.14358 0.0452 0.19262l1.8344 1.6729-1.6293 1.7067zm9.1019-5.0144h3.778c0.097 0 0.17498-0.0787 0.17498-0.17498 0-0.0561-0.0261-0.10618-0.0674-0.13793l-1.8316-1.8927 1.6316-1.6397 1.753 1.7618c0.0639 0.0642 0.16757 0.0688 0.23742 0.01l1.5938-1.3518v3.2508c0 0.0455 0.018 0.0896 0.0504 0.12206l1.6295 1.669-1.6274 1.6009c-0.0332 0.0332-0.0526 0.078-0.0526 0.12489v3.2731l-1.5826-1.6023c-0.0332-0.0335-0.0797-0.0483-0.12629-0.0515-0.0469 3.5e-4 -0.0921 0.0198-0.12489 0.054l-1.7508 1.8334-1.6355-1.7039 1.8436-1.6729c0.0536-0.0487 0.072-0.12594 0.0459-0.19227-0.0265-0.0677-0.091-0.11253-0.16334-0.11253h-3.778l-1.5762-1.5508zm3.9269 18.306 1.7625-1.8464c0.0321-0.0342 0.0497-0.0797 0.048-0.127-2e-3 -0.0473-0.0219-0.0917-0.0572-0.12312l-1.633-1.4901h3.398c0.0459 0 0.09-0.018 0.12312-0.0497l1.6281-1.6023v-0.49636l-1.626-1.6658c-0.0332-0.0339-0.078-0.0526-0.12524-0.0526h-3.4368l1.6803-1.7357c0.066-0.0684 0.0653-0.17745-2e-3 -0.24483l-1.7596-1.7688 1.638-1.7159 1.7561 1.7769c0.0494 0.0505 0.12489 0.0656 0.19086 0.0392 0.0656-0.0268 0.1083-0.091 0.1083-0.16192v-3.6259l1.5762-1.5515v-0.49566l-1.5762-1.6143v-3.5574c0-0.0684-0.0395-0.13053-0.10125-0.1591-0.0621-0.0286-0.13476-0.0183-0.18697 0.0257l-1.7593 1.4916-1.5296-1.5371h-0.71472l-1.6436 1.6517c-0.0674 0.0677-0.0681 0.17639-2e-3 0.24553l1.6803 1.735h-3.4368c-0.0475 0-0.0926 0.019-0.12542 0.0526l-1.6265 1.6658-1.6259-1.6658c-0.0328-0.0335-0.0783-0.0526-0.12513-0.0526h-3.4368l1.6798-1.735c0.0661-0.0691 0.0654-0.1778-2e-3 -0.24553l-1.6436-1.6517h-0.71932l-1.5299 1.5371-1.7595-1.4916c-0.052-0.0441-0.12474-0.0543-0.18672-0.0257-0.062 0.0286-0.10129 0.0907-0.10129 0.1591v3.5574l-1.5765 1.6143v0.49566l1.5765 1.5515v3.6258c0 0.0709 0.0427 0.13512 0.10859 0.16192 0.0657 0.0268 0.1415 0.0109 0.19113-0.0392l1.7466-1.7769 1.6468 1.7163-1.7598 1.7685c-0.0668 0.0674-0.0682 0.17639-2e-3 0.24482l1.6802 1.7357h-3.4368c-0.0472 0-0.0923 0.0187-0.12538 0.0526l-1.6261 1.6658v0.49636l1.6288 1.6023c0.0324 0.0317 0.0765 0.0497 0.12262 0.0497h3.3962l-1.6412 1.4894c-0.0349 0.0317-0.0556 0.0759-0.0572 0.12382-2e-3 0.0473 0.0159 0.0928 0.0489 0.127l1.7715 1.8464-0.11575 0.11677h0.71932l-0.11642-0.11677 1.638-1.7163 1.7561 1.7766c0.0503 0.0508 0.12538 0.066 0.19085 0.0392 0.0661-0.0272 0.10887-0.0907 0.10887-0.16192v-3.6255l1.576-1.5508 1.5766 1.5508v3.6255c0 0.0713 0.043 0.13511 0.10887 0.16192 0.0657 0.0272 0.14125 0.0116 0.19113-0.0392l1.7462-1.7766 1.6471 1.7163-0.11606 0.11677h0.71472l-0.11606-0.11677"/>
  <path d="m75.884 131.51c-0.0328-0.0342-0.078-0.054-0.12559-0.0543h-7.1e-4c-0.0469 0-0.0921 0.0187-0.12489 0.0522l-1.5728 1.6006v-3.2717c0-0.0466-0.0191-0.0917-0.0524-0.12453l-1.6272-1.6009 1.6293-1.6694c0.0324-0.0324 0.0503-0.0765 0.0503-0.12241v-3.2501l1.5943 1.3522c0.0698 0.0586 0.17322 0.0543 0.23707-0.0106l1.753-1.7611 1.6316 1.6394-1.8472 1.9089c-0.049 0.0501-0.0632 0.12488-0.036 0.18979 0.0275 0.0646 0.091 0.10689 0.16122 0.10689h3.7758l1.5787 1.6164-1.5762 1.5505h-3.7782c-0.0723 0-0.13723 0.0448-0.16298 0.11183-0.0265 0.0674-8e-3 0.14429 0.0451 0.19262l1.8348 1.6736-1.627 1.7036zm-5.3269-5.2617v-3.5571c0-0.0684-0.0396-0.13017-0.10128-0.1591-0.062-0.0282-0.13508-0.0183-0.18673 0.0257l-1.7598 1.4916-1.6461-1.6538 1.7625-1.8461c0.0326-0.0339 0.0503-0.0801 0.0485-0.127-2e-3 -0.0469-0.0223-0.0921-0.0568-0.12347l-1.6336-1.4894h3.3982c0.0459 0 0.09-0.018 0.12262-0.0505l1.6284-1.6027 1.6288 1.6027c0.0328 0.0325 0.0769 0.0505 0.12308 0.0505h3.3963l-1.6415 1.4891c-0.0349 0.0317-0.0557 0.0765-0.0571 0.12382-2e-3 0.0473 0.0159 0.0931 0.0487 0.127l1.7716 1.8464-1.6461 1.6535-1.759-1.4915c-0.0521-0.0448-0.12499-0.054-0.18673-0.0257-0.062 0.0289-0.10156 0.0907-0.10156 0.1591v3.5571l-1.5766 1.615zm-0.29767 3.4639c-0.0338 0.0328-0.0524 0.078-0.0524 0.12453v3.2731l-1.5834-1.602c-0.0331-0.0339-0.0761-0.0487-0.1258-0.0522-0.0474 2.6e-4 -0.0926 0.0201-0.12499 0.0543l-1.7533 1.8366-1.6381-1.7067 1.8438-1.6729c0.0538-0.049 0.0717-0.12524 0.0455-0.19297-0.0258-0.0674-0.091-0.11218-0.16327-0.11218h-3.7779l-1.5761-1.5505 1.5781-1.6164h3.7778c0.0967 0 0.1753-0.079 0.1753-0.17532 0-0.0565-0.0265-0.10584-0.0675-0.13794l-1.8321-1.8923 1.6339-1.6422 1.756 1.7639c0.0641 0.0649 0.16743 0.0692 0.237 0.0106l1.5944-1.3522v3.2501c0 0.0459 0.0176 0.09 0.0496 0.12241l1.6295 1.6694zm-5.4026-9.4054c-0.0324-0.0335-0.0779-0.0529-0.12499-0.0533-0.0507 0-0.0928 0.0183-0.12584 0.0526l-1.573 1.5998v-3.271c0-0.0473-0.0186-0.0921-0.0523-0.12524l-1.627-1.6009 1.6294-1.6694c0.0321-0.0321 0.05-0.0762 0.05-0.12171v-3.2508l1.5944 1.3518c0.0696 0.0593 0.17293 0.0547 0.23699-0.01l1.7552-1.7646 1.6348 1.6425-1.848 1.9085c-0.0489 0.0504-0.0627 0.12524-0.0354 0.19015 0.0279 0.0646 0.0912 0.10689 0.16126 0.10689h3.7761l1.5778 1.6161-1.5758 1.5504h-3.7781c-0.0721 0-0.13684 0.0448-0.16302 0.11254-0.0262 0.0667-8e-3 0.14358 0.0452 0.19262l1.8344 1.6729-1.6293 1.7067zm9.1019-5.014h3.778c0.097 0 0.17498-0.0787 0.17498-0.17498 0-0.0561-0.0261-0.10619-0.0674-0.13829l-1.8316-1.8923 1.6316-1.6401 1.753 1.7621c0.0639 0.0642 0.16757 0.0688 0.23742 0.01l1.5938-1.3518v3.2508c0 0.0455 0.018 0.0896 0.0504 0.1217l1.6295 1.6694-1.6274 1.6009c-0.0332 0.0332-0.0526 0.078-0.0526 0.12524v3.2727l-1.5826-1.6023c-0.0332-0.0335-0.0797-0.0487-0.1263-0.0519-0.0469 2.7e-4 -0.0921 0.0201-0.12488 0.0543l-1.7508 1.8334-1.6355-1.7039 1.8436-1.6729c0.0536-0.0487 0.072-0.12594 0.0459-0.19226-0.0265-0.0681-0.091-0.11289-0.16333-0.11289h-3.778l-1.5762-1.5505zm3.9269 18.306 1.7625-1.8468c0.0321-0.0342 0.0497-0.0794 0.048-0.12665-2e-3 -0.0473-0.0219-0.0917-0.0572-0.12347l-1.633-1.4901h3.398c0.0459 0 0.09-0.0177 0.12312-0.0494l1.6281-1.6023v-0.49636l-1.626-1.6658c-0.0332-0.0342-0.078-0.0526-0.12524-0.0526h-3.4368l1.6803-1.7357c0.066-0.0684 0.0653-0.17745-2e-3 -0.24483l-1.7596-1.7688 1.6379-1.7163 1.7561 1.7776c0.0494 0.0501 0.12489 0.0653 0.19085 0.0388 0.0656-0.0268 0.10831-0.091 0.10831-0.16192v-3.6262l1.5762-1.5512v-0.49565l-1.5762-1.6147v-3.5574c0-0.0681-0.0395-0.12982-0.10125-0.15875-0.0621-0.0289-0.13476-0.0183-0.18697 0.0257l-1.7593 1.4916-1.5296-1.5371h-0.71473l-1.6436 1.6514c-0.0674 0.0681-0.0681 0.17674-2e-3 0.24553l1.6803 1.7353h-3.4369c-0.0476 0-0.0926 0.0194-0.12541 0.0526l-1.6265 1.6658-1.6259-1.6658c-0.0328-0.0332-0.0783-0.0526-0.12513-0.0526h-3.4368l1.6798-1.7353c0.0661-0.0688 0.0654-0.17745-2e-3 -0.24553l-1.6436-1.6514h-0.71932l-1.5299 1.537-1.7595-1.4915c-0.052-0.0441-0.12474-0.0547-0.18672-0.0257-0.062 0.0289-0.10129 0.0907-0.10129 0.15875v3.5574l-1.5765 1.6147v0.49566l1.5765 1.5512v3.6262c0 0.0709 0.0427 0.13511 0.10859 0.16193 0.0657 0.0268 0.1415 0.0109 0.19113-0.0388l1.7466-1.7776 1.6468 1.7166-1.7598 1.7685c-0.0668 0.0674-0.0682 0.17639-2e-3 0.24483l1.6802 1.7357h-3.4368c-0.0472 0-0.0923 0.0183-0.12538 0.0526l-1.6261 1.6658v0.49636l1.6288 1.6023c0.0324 0.0318 0.0765 0.0494 0.12262 0.0494h3.3962l-1.6412 1.4898c-0.0349 0.0317-0.0556 0.0759-0.0572 0.12382-2e-3 0.0473 0.0159 0.0924 0.0489 0.127l1.7715 1.8464-0.11575 0.11677h0.71932l-0.11642-0.11677 1.638-1.7163 1.7561 1.7766c0.0503 0.0508 0.12538 0.066 0.19085 0.0392 0.0661-0.0272 0.10887-0.0907 0.10887-0.16192v-3.6255l1.576-1.5508 1.5766 1.5508v3.6255c0 0.0713 0.043 0.13511 0.10887 0.16192 0.0657 0.0272 0.14125 0.0116 0.19113-0.0395l1.7462-1.7762 1.6471 1.7163-0.11606 0.11677h0.71472l-0.11606-0.11677"/>
  <path d="m75.884 153.91c-0.0328-0.0339-0.078-0.0536-0.12559-0.054h-7.1e-4c-0.0469 0-0.0921 0.0187-0.12489 0.0522l-1.5728 1.6006v-3.2717c0-0.0469-0.0191-0.0921-0.0524-0.12453l-1.6272-1.6009 1.6293-1.6693c0.0324-0.0328 0.0503-0.0769 0.0503-0.12277v-3.2498l1.5943 1.3522c0.0698 0.0586 0.17322 0.0543 0.23707-0.0106l1.753-1.7614 1.6316 1.6397-1.8472 1.9089c-0.049 0.0501-0.0632 0.12488-0.036 0.1898 0.0275 0.0642 0.091 0.10689 0.16122 0.10689h3.7758l1.5787 1.6164-1.5762 1.5504h-3.7782c-0.0723 0-0.13723 0.0448-0.16298 0.11148-0.0265 0.0677-8e-3 0.14464 0.0451 0.19262l1.8348 1.6739-1.627 1.7036zm-5.3269-5.2613v-3.5574c0-0.0681-0.0396-0.13018-0.10128-0.15875-0.062-0.0282-0.13508-0.0187-0.18673 0.0254l-1.7598 1.4919-1.6461-1.6542 1.7625-1.8457c0.0326-0.0342 0.0503-0.0804 0.0485-0.127-2e-3 -0.0469-0.0223-0.0921-0.0568-0.12347l-1.6336-1.4898h3.3982c0.0459 0 0.09-0.0176 0.12262-0.0501l1.6284-1.6027 1.6288 1.6027c0.0328 0.0325 0.0769 0.0501 0.12308 0.0501h3.3963l-1.6415 1.4894c-0.0349 0.0317-0.0557 0.0765-0.0571 0.12383-2e-3 0.0469 0.0159 0.0928 0.0487 0.127l1.7716 1.8461-1.6461 1.6538-1.759-1.4919c-0.0521-0.0444-0.12499-0.0536-0.18673-0.0254-0.062 0.0286-0.10156 0.0907-0.10156 0.15875v3.5574l-1.5766 1.6147zm-0.29767 3.4639c-0.0338 0.0325-0.0524 0.0776-0.0524 0.12453v3.2731l-1.5834-1.602c-0.0331-0.0339-0.0761-0.0487-0.1258-0.0522-0.0474 2.6e-4 -0.0926 0.0201-0.12499 0.054l-1.7533 1.8366-1.6381-1.7064 1.8438-1.6732c0.0538-0.0487 0.0717-0.12488 0.0455-0.19297-0.0258-0.067-0.091-0.11183-0.16327-0.11183h-3.7779l-1.5761-1.5505 1.5781-1.6164h3.7778c0.0967 0 0.1753-0.079 0.1753-0.17568 0-0.0561-0.0265-0.10548-0.0675-0.13758l-1.8321-1.8923 1.6339-1.6422 1.756 1.7639c0.0641 0.0649 0.16743 0.0691 0.237 0.0106l1.5944-1.3522v3.2498c0 0.0459 0.0176 0.09 0.0496 0.12276l1.6295 1.6694zm-5.4026-9.4054c-0.0324-0.0335-0.0779-0.0529-0.12499-0.0533-0.0507 0-0.0928 0.0183-0.12584 0.0526l-1.573 1.5998v-3.2713c0-0.0473-0.0186-0.0917-0.0523-0.12488l-1.627-1.6009 1.6294-1.6693c0.0321-0.0325 0.05-0.0765 0.05-0.12171v-3.2508l1.5944 1.3518c0.0696 0.0593 0.17293 0.0547 0.23699-0.01l1.7552-1.7642 1.6348 1.6425-1.848 1.9085c-0.0489 0.0505-0.0627 0.12524-0.0354 0.19015 0.0279 0.0646 0.0912 0.10689 0.16126 0.10689h3.7761l1.5778 1.6161-1.5758 1.5505h-3.7781c-0.0721 0-0.13684 0.0448-0.16302 0.11253-0.0262 0.0667-8e-3 0.14358 0.0452 0.19227l1.8344 1.6732-1.6293 1.7067zm9.1019-5.014h3.778c0.097 0 0.17498-0.0787 0.17498-0.17498 0-0.0564-0.0261-0.10619-0.0674-0.13829l-1.8316-1.8923 1.6316-1.6401 1.753 1.7618c0.0639 0.0646 0.16757 0.0691 0.23742 0.01l1.5938-1.3518v3.2508c0 0.0451 0.018 0.0892 0.0504 0.12171l1.6295 1.6693-1.6274 1.6009c-0.0332 0.0332-0.0526 0.0776-0.0526 0.12488v3.2731l-1.5826-1.6023c-0.0332-0.0335-0.0797-0.0487-0.1263-0.0519-0.0469 2.6e-4 -0.0921 0.0201-0.12488 0.054l-1.7508 1.8337-1.6355-1.7039 1.8436-1.6732c0.0536-0.0483 0.072-0.12559 0.0459-0.19191-0.0265-0.0681-0.091-0.11289-0.16333-0.11289h-3.778l-1.5762-1.5505zm3.9269 18.305 1.7625-1.8464c0.0321-0.0342 0.0497-0.0797 0.048-0.12664-2e-3 -0.0473-0.0219-0.0917-0.0572-0.12347l-1.633-1.4901h3.398c0.0459 0 0.09-0.0177 0.12312-0.0494l1.6281-1.6023v-0.49672l-1.626-1.6655c-0.0332-0.0342-0.078-0.0529-0.12524-0.0529h-3.4368l1.6803-1.7357c0.066-0.0681 0.0653-0.17745-2e-3 -0.24448l-1.7596-1.7692 1.638-1.7159 1.7561 1.7773c0.0494 0.0504 0.12489 0.0656 0.19086 0.0392 0.0656-0.0272 0.1083-0.091 0.1083-0.16192v-3.6262l1.5762-1.5512v-0.49565l-1.5762-1.6147v-3.5574c0-0.0681-0.0395-0.13017-0.10125-0.1591-0.0621-0.0286-0.13476-0.0183-0.18697 0.0257l-1.7593 1.4919-1.5296-1.537h-0.71473l-1.6436 1.6514c-0.0674 0.0681-0.0681 0.17675-2e-3 0.24554l1.6803 1.735h-3.4368c-0.0476 0-0.0926 0.0194-0.12542 0.0529l-1.6265 1.6658-1.6259-1.6658c-0.0328-0.0335-0.0783-0.0529-0.12513-0.0529h-3.4368l1.6798-1.735c0.0661-0.0688 0.0654-0.17745-2e-3 -0.24553l-1.6436-1.6514h-0.71932l-1.5299 1.537-1.7595-1.4919c-0.052-0.0441-0.12474-0.0543-0.18672-0.0257-0.062 0.0289-0.10129 0.091-0.10129 0.15911v3.5574l-1.5765 1.6147v0.49565l1.5765 1.5512v3.6262c0 0.0709 0.0427 0.13476 0.10859 0.16192 0.0657 0.0268 0.1415 0.0109 0.19113-0.0392l1.7466-1.7773 1.6468 1.7163-1.7598 1.7688c-0.0668 0.067-0.0682 0.17639-2e-3 0.24448l1.6802 1.7357h-3.4368c-0.0472 0-0.0923 0.0187-0.12538 0.0529l-1.6261 1.6655v0.49672l1.6288 1.6023c0.0324 0.0317 0.0765 0.0494 0.12262 0.0494h3.3962l-1.6412 1.4898c-0.0349 0.0317-0.0556 0.0759-0.0572 0.12383-2e-3 0.0469 0.0159 0.0924 0.0489 0.127l1.7715 1.8461-0.11575 0.11677h0.71932l-0.11642-0.11677 1.638-1.7159 1.7561 1.7766c0.0503 0.0508 0.12538 0.066 0.19085 0.0392 0.0661-0.0275 0.10887-0.0907 0.10887-0.16192v-3.6255l1.576-1.5508 1.5766 1.5508v3.6255c0 0.0713 0.043 0.13476 0.10887 0.16192 0.0657 0.0272 0.14125 0.0116 0.19113-0.0395l1.7462-1.7762 1.6471 1.7159-0.11606 0.11677h0.71472l-0.11606-0.11678"/>
 </g>
</svg>
