<?xml version="1.0" encoding="UTF-8" standalone="no"?>
<!-- Created with Inkscape (http://www.inkscape.org/) -->

<svg
   xmlns:dc="http://purl.org/dc/elements/1.1/"
   xmlns:cc="http://creativecommons.org/ns#"
   xmlns:rdf="http://www.w3.org/1999/02/22-rdf-syntax-ns#"
   xmlns:svg="http://www.w3.org/2000/svg"
   xmlns="http://www.w3.org/2000/svg"
   xmlns:sodipodi="http://sodipodi.sourceforge.net/DTD/sodipodi-0.dtd"
   xmlns:inkscape="http://www.inkscape.org/namespaces/inkscape"
   width="44.097389mm"
   height="67.214462mm"
   viewBox="0 0 44.097389 67.214462"
   version="1.1"
   id="svg4194"
   inkscape:version="0.92.5 (2060ec1f9f, 2020-04-08)"
   sodipodi:docname="drawing.svg">
  <defs
     id="defs4188" />
  <sodipodi:namedview
     id="base"
     pagecolor="#ffffff"
     bordercolor="#666666"
     borderopacity="1.0"
     inkscape:pageopacity="0.0"
     inkscape:pageshadow="2"
     inkscape:zoom="1.4182101"
     inkscape:cx="-21.151027"
     inkscape:cy="140.35494"
     inkscape:document-units="mm"
     inkscape:current-layer="layer1"
     showgrid="false"
     inkscape:window-width="1874"
     inkscape:window-height="1016"
     inkscape:window-x="46"
     inkscape:window-y="27"
     inkscape:window-maximized="1" />
  <metadata
     id="metadata4191">
    <rdf:RDF>
      <cc:Work
         rdf:about="">
        <dc:format>image/svg+xml</dc:format>
        <dc:type
           rdf:resource="http://purl.org/dc/dcmitype/StillImage" />
        <dc:title></dc:title>
      </cc:Work>
    </rdf:RDF>
  </metadata>
  <g
     inkscape:label="Layer 1"
     inkscape:groupmode="layer"
     id="layer1"
     transform="translate(-61.10561,-88.904615)">
    <path
       d="m 97.93226,109.10433 c -0.0328,-0.0342 -0.078,-0.0536 -0.12559,-0.0543 h -7.9e-4 c -0.0469,0 -0.0924,0.0187 -0.12489,0.0522 l -1.57268,1.60055 v -3.27166 c 0,-0.0466 -0.019,-0.0917 -0.0526,-0.12453 l -1.62701,-1.60091 1.62913,-1.66899 c 0.0325,-0.0328 0.0505,-0.0769 0.0505,-0.12277 v -3.25014 l 1.5942,1.3522 c 0.0698,0.0586 0.17286,0.0543 0.23707,-0.0102 l 1.75295,-1.76142 1.6316,1.63936 -1.84715,1.90888 c -0.049,0.0505 -0.0632,0.12524 -0.036,0.18979 0.0275,0.0646 0.091,0.1069 0.16122,0.1069 h 3.77578 l 1.57868,1.61642 -1.57621,1.55046 h -3.77825 c -0.0723,0 -0.13723,0.0452 -0.16298,0.11183 -0.0265,0.0674 -0.008,0.14429 0.0452,0.19262 l 1.83479,1.67358 -1.62701,1.70356 -1.76001,-1.83339 m -5.32685,-5.26132 v -3.55741 c 0,-0.0684 -0.0395,-0.13053 -0.10125,-0.15875 -0.0621,-0.0286 -0.13511,-0.0187 -0.18662,0.0254 l -1.76,1.49154 -1.64607,-1.653815 1.76283,-1.84609 c 0.0325,-0.0339 0.0501,-0.0801 0.0483,-0.127 -0.002,-0.0469 -0.0222,-0.0921 -0.0568,-0.12347 l -1.63372,-1.48943 h 3.39831 c 0.0459,0 0.09,-0.018 0.12276,-0.0504 l 1.62843,-1.60267 1.62877,1.60267 c 0.0328,0.0324 0.0769,0.0504 0.12312,0.0504 h 3.39619 l -1.64147,1.48908 c -0.0349,0.0317 -0.0557,0.0765 -0.0571,0.12382 -0.002,0.0473 0.0159,0.0931 0.0487,0.127 l 1.77165,1.84644 -1.64606,1.653465 -1.75895,-1.49154 c -0.0522,-0.0444 -0.12524,-0.054 -0.18662,-0.0254 -0.0621,0.0282 -0.1016,0.0903 -0.1016,0.15875 v 3.55741 l -1.57657,1.61466 -1.57621,-1.61466 m -0.29774,3.46357 c -0.0335,0.0328 -0.0522,0.078 -0.0522,0.12453 v 3.27307 l -1.58327,-1.60196 c -0.0332,-0.0339 -0.0762,-0.0487 -0.12594,-0.0522 -0.0476,7.1e-4 -0.0924,0.0201 -0.12488,0.0543 l -1.75331,1.83656 -1.6383,-1.70674 1.84397,-1.67287 c 0.0536,-0.049 0.0716,-0.12524 0.0455,-0.19297 -0.0257,-0.067 -0.091,-0.11218 -0.16334,-0.11218 h -3.77789 l -1.57622,-1.55046 1.57833,-1.61643 h 3.77578 0.002 c 0.0967,0 0.17533,-0.079 0.17533,-0.17533 0,-0.0561 -0.0265,-0.10583 -0.0674,-0.13794 l -1.83233,-1.8923 1.63407,-1.64182 1.75577,1.76388 c 0.0642,0.0646 0.16757,0.0688 0.23707,0.0102 l 1.59456,-1.35219 v 3.25014 c 0,0.0459 0.0176,0.09 0.0494,0.12277 l 1.62983,1.66899 -1.62701,1.6009 m -5.40237,-9.405055 c -0.0325,-0.0339 -0.078,-0.0529 -0.12523,-0.0533 -0.0505,0 -0.0924,0.018 -0.12559,0.0522 l -1.57304,1.59984 v -3.27095 c 0,-0.0473 -0.0187,-0.0921 -0.0526,-0.12524 l -1.62701,-1.6009 1.62948,-1.669 c 0.0321,-0.0325 0.0501,-0.0765 0.0501,-0.12206 v -3.25084 l 1.59456,1.35184 c 0.0695,0.0593 0.17286,0.0547 0.23671,-0.01 l 1.75542,-1.76424 1.63477,1.64218 -1.8482,1.90853 c -0.0487,0.0508 -0.0624,0.12559 -0.0353,0.19014 0.0279,0.0646 0.0914,0.1069 0.16122,0.1069 h 3.77614 l 1.57797,1.61607 -1.57586,1.55081 h -3.77825 c -0.072,0 -0.13688,0.0448 -0.16298,0.11219 -0.0261,0.0667 -0.009,0.14358 0.0451,0.19261 l 1.83445,1.67287 -1.62913,1.70674 -1.76283,-1.83691 m 9.10202,-5.01438 h 3.77578 0.002 c 0.097,0 0.17498,-0.0787 0.17498,-0.17498 0,-0.0561 -0.0261,-0.10619 -0.0674,-0.13794 l -1.83162,-1.89265 1.63159,-1.63971 1.75296,1.76177 c 0.0638,0.0642 0.16756,0.0688 0.23706,0.01 l 1.59422,-1.35184 v 3.25084 c 0,0.0455 0.018,0.0896 0.0504,0.12206 l 1.62948,1.669 -1.62701,1.6009 c -0.0335,0.0332 -0.0529,0.078 -0.0529,0.12524 v 3.27272 l -1.58256,-1.60232 c -0.0332,-0.0335 -0.0797,-0.0483 -0.12629,-0.0515 -0.0473,3.5e-4 -0.0921,0.0198 -0.12489,0.054 l -1.75083,1.83339 -1.63548,-1.70392 1.84362,-1.67287 c 0.0536,-0.0487 0.072,-0.12594 0.0459,-0.19227 -0.0265,-0.0677 -0.091,-0.11253 -0.16334,-0.11253 h -3.7779 l -1.57621,-1.55081 1.57833,-1.61608 m 3.92677,18.305635 1.76248,-1.84644 c 0.0321,-0.0342 0.0497,-0.0797 0.048,-0.127 -0.002,-0.0473 -0.0219,-0.0917 -0.0571,-0.12312 l -1.63301,-1.49013 h 3.39796 c 0.0459,0 0.09,-0.018 0.12311,-0.0497 l 1.62808,-1.60232 v -0.49636 l -1.62596,-1.66581 c -0.0332,-0.0339 -0.078,-0.0526 -0.12523,-0.0526 h -3.43677 l 1.68028,-1.73567 c 0.066,-0.0684 0.0653,-0.17745 -0.002,-0.24483 l -1.75965,-1.768825 1.63795,-1.71591 1.75612,1.776935 c 0.0494,0.0505 0.12489,0.0656 0.19086,0.0392 0.0656,-0.0268 0.1083,-0.091 0.1083,-0.161915 v -3.62586 l 1.5762,-1.55151 v -0.49566 l -1.57622,-1.61431 v -3.55741 c 0,-0.0681 -0.0395,-0.13053 -0.10125,-0.15945 -0.0621,-0.0282 -0.13476,-0.018 -0.18697,0.0261 l -1.7593,1.49155 -1.52964,-1.53706 h -0.71473 l -1.64359,1.65171 c -0.0674,0.0677 -0.0681,0.17639 -0.002,0.24553 l 1.68028,1.73496 h -3.43676 c -0.0476,0 -0.0928,0.019 -0.12559,0.0526 l -1.62626,1.66581 -1.62595,-1.66581 c -0.0328,-0.0335 -0.0783,-0.0526 -0.12524,-0.0526 h -3.43676 l 1.67993,-1.73496 c 0.066,-0.0691 0.0653,-0.1778 -0.002,-0.24553 l -1.64372,-1.65171 H 88.3079 l -1.52999,1.53706 -1.75931,-1.49155 c -0.0519,-0.0441 -0.12453,-0.0543 -0.18662,-0.0261 -0.0621,0.0289 -0.10124,0.0914 -0.10124,0.15945 v 3.55741 l -1.57657,1.61431 v 0.49566 l 1.57657,1.55151 v 3.62585 c 0,0.0709 0.0427,0.135115 0.1083,0.161925 0.066,0.0268 0.14182,0.0109 0.1912,-0.0392 l 1.74696,-1.776935 1.64641,1.71626 -1.75965,1.768475 c -0.0667,0.0674 -0.0681,0.17638 -0.002,0.24482 l 1.68028,1.73567 h -3.43675 c -0.0473,0 -0.0924,0.0187 -0.12559,0.0526 l -1.62596,1.66582 v 0.49636 l 1.62878,1.60231 c 0.0325,0.0318 0.0766,0.0497 0.12277,0.0497 h 3.39619 l -1.64148,1.48943 c -0.0346,0.0317 -0.0554,0.0759 -0.0572,0.12383 -0.002,0.0473 0.0159,0.0928 0.049,0.127 l 1.7713,1.84643 -0.11571,0.11677 h 0.71931 l -0.11641,-0.11677 1.6383,-1.71626 1.75577,1.77694 c 0.0504,0.0505 0.12559,0.0656 0.19085,0.0388 0.0663,-0.0272 0.10901,-0.0907 0.10901,-0.16192 v -3.6255 l 1.57621,-1.55081 1.57657,1.55081 v 3.6255 c 0,0.0713 0.043,0.13511 0.10865,0.16192 0.066,0.0272 0.14147,0.0116 0.19121,-0.0392 l 1.74625,-1.77659 1.64712,1.71627 -0.11607,0.11677 h 0.71473 l -0.11606,-0.11677"
       style="fill:#ffffff;fill-opacity:1;fill-rule:nonzero;stroke:none;stroke-width:0.03527778"
       id="path274"
       inkscape:connector-curvature="0"
       inkscape:export-xdpi="90.006699"
       inkscape:export-ydpi="90.006699" />
    <path
       d="m 97.93226,131.50924 c -0.0328,-0.0342 -0.078,-0.054 -0.12559,-0.0543 h -7.9e-4 c -0.0469,0 -0.0924,0.0187 -0.12489,0.0522 l -1.57268,1.60056 v -3.27167 c 0,-0.0466 -0.019,-0.0917 -0.0526,-0.12453 l -1.62701,-1.6009 1.62913,-1.66935 c 0.0325,-0.0324 0.0505,-0.0765 0.0505,-0.12241 v -3.25014 l 1.5942,1.35219 c 0.0698,0.0586 0.17286,0.0543 0.23707,-0.0106 l 1.75295,-1.76106 1.6316,1.63936 -1.84715,1.90888 c -0.049,0.0505 -0.0632,0.12488 -0.036,0.18979 0.0275,0.0646 0.091,0.10689 0.16122,0.10689 h 3.77578 l 1.57868,1.61643 -1.57621,1.55046 h -3.77825 c -0.0723,0 -0.13723,0.0448 -0.16298,0.11183 -0.0265,0.0674 -0.008,0.14429 0.0452,0.19262 l 1.83479,1.67358 -1.62701,1.70356 -1.76001,-1.83339 m -5.32694,-5.26132 v -3.55742 c 0,-0.0684 -0.0395,-0.13017 -0.10125,-0.1591 -0.0621,-0.0282 -0.13511,-0.0183 -0.18662,0.0257 l -1.76,1.49155 -1.64607,-1.65383 1.76283,-1.84608 c 0.0325,-0.0339 0.0501,-0.0801 0.0483,-0.127 -0.002,-0.0469 -0.0222,-0.0921 -0.0568,-0.12347 l -1.63372,-1.48943 h 3.39831 c 0.0459,0 0.09,-0.018 0.12276,-0.0505 l 1.62843,-1.60266 1.62877,1.60266 c 0.0328,0.0325 0.0769,0.0505 0.12312,0.0505 h 3.39619 l -1.64147,1.48908 c -0.0349,0.0317 -0.0557,0.0765 -0.0571,0.12382 -0.002,0.0473 0.0159,0.0931 0.0487,0.127 l 1.77165,1.84644 -1.64606,1.65347 -1.75895,-1.49154 c -0.0522,-0.0448 -0.12524,-0.054 -0.18662,-0.0257 -0.0621,0.0289 -0.1016,0.0907 -0.1016,0.1591 v 3.55741 l -1.57657,1.61466 -1.57621,-1.61466 m -0.29774,3.46357 c -0.0335,0.0328 -0.0522,0.078 -0.0522,0.12453 v 3.27308 l -1.58327,-1.60197 c -0.0332,-0.0339 -0.0762,-0.0487 -0.12594,-0.0522 -0.0476,2.7e-4 -0.0924,0.0201 -0.12488,0.0543 l -1.75331,1.83656 -1.6383,-1.70674 1.84397,-1.67287 c 0.0536,-0.049 0.0716,-0.12523 0.0455,-0.19297 -0.0257,-0.0674 -0.091,-0.11218 -0.16334,-0.11218 h -3.7778 l -1.57622,-1.55046 1.57833,-1.61643 h 3.77578 0.002 c 0.0967,0 0.17533,-0.079 0.17533,-0.17533 0,-0.0565 -0.0265,-0.10583 -0.0674,-0.13793 l -1.83233,-1.8923 1.63407,-1.64218 1.75577,1.76388 c 0.0642,0.0649 0.16757,0.0692 0.23707,0.0106 l 1.59456,-1.35219 v 3.25014 c 0,0.0459 0.0176,0.09 0.0494,0.12241 l 1.62983,1.66935 -1.62701,1.6009 m -5.40244,-9.40541 c -0.0325,-0.0335 -0.078,-0.0529 -0.12524,-0.0533 -0.0505,0 -0.0924,0.0183 -0.12559,0.0526 l -1.57303,1.59985 v -3.27132 c 0,-0.0469 -0.0187,-0.0917 -0.0526,-0.12488 l -1.62701,-1.6009 1.62948,-1.66935 c 0.0321,-0.0321 0.0501,-0.0762 0.0501,-0.12171 v -3.25085 l 1.59455,1.35185 c 0.0695,0.0593 0.17286,0.0547 0.23672,-0.01 l 1.75542,-1.7646 1.63477,1.64254 -1.8482,1.90852 c -0.0487,0.0504 -0.0624,0.12524 -0.0353,0.19015 0.0279,0.0646 0.0914,0.10689 0.16122,0.10689 h 3.77613 l 1.57798,1.61608 -1.57586,1.55046 h -3.77825 c -0.072,0 -0.13688,0.0448 -0.16298,0.11253 -0.0261,0.0667 -0.009,0.14359 0.0451,0.19262 l 1.83444,1.67287 -1.62913,1.70674 -1.76283,-1.83727 m 9.10211,-5.01403 h 3.77578 0.002 c 0.097,0 0.17498,-0.0787 0.17498,-0.17497 0,-0.0561 -0.0261,-0.10619 -0.0674,-0.13829 l -1.83162,-1.8923 1.6316,-1.64007 1.75295,1.76213 c 0.0639,0.0642 0.16757,0.0688 0.23707,0.01 l 1.5942,-1.35185 v 3.25085 c 0,0.0455 0.018,0.0896 0.0504,0.12171 l 1.62948,1.66935 -1.62701,1.6009 c -0.0335,0.0332 -0.0529,0.078 -0.0529,0.12488 v 3.27308 l -1.58256,-1.60232 c -0.0332,-0.0335 -0.0797,-0.0487 -0.1263,-0.0519 -0.0473,2.6e-4 -0.0921,0.0201 -0.12488,0.0543 l -1.75084,1.83339 -1.63547,-1.70392 1.84361,-1.67287 c 0.0536,-0.0487 0.072,-0.12595 0.0459,-0.19227 -0.0265,-0.0681 -0.091,-0.11289 -0.16333,-0.11289 h -3.7779 l -1.57621,-1.55045 1.57833,-1.61608 m 3.92676,18.30564 1.76248,-1.84679 c 0.0321,-0.0342 0.0497,-0.0797 0.048,-0.12665 -0.002,-0.0473 -0.0219,-0.0917 -0.0571,-0.12347 l -1.633,-1.49014 h 3.39796 c 0.0459,0 0.09,-0.0177 0.12311,-0.0494 l 1.62808,-1.60231 v -0.49636 l -1.62596,-1.66582 c -0.0332,-0.0342 -0.078,-0.0526 -0.12523,-0.0526 h -3.43677 l 1.68028,-1.73566 c 0.066,-0.0684 0.0653,-0.17745 -0.002,-0.24483 l -1.75965,-1.76883 1.63795,-1.71627 1.75612,1.77765 c 0.0494,0.0501 0.12489,0.0653 0.19086,0.0388 0.0656,-0.0268 0.1083,-0.091 0.1083,-0.16192 v -3.62621 l 1.57621,-1.55116 V 116.66 l -1.57621,-1.61467 v -3.55741 c 0,-0.0681 -0.0395,-0.13017 -0.10125,-0.1591 -0.0621,-0.0286 -0.13476,-0.018 -0.18697,0.0261 l -1.7593,1.49154 -1.52965,-1.53705 H 99.3349 l -1.6436,1.65135 c -0.0674,0.0681 -0.0681,0.17675 -0.002,0.24554 l 1.68029,1.73531 h -3.43677 c -0.0476,0 -0.0928,0.019 -0.12558,0.0526 l -1.62631,1.66582 -1.62595,-1.66582 c -0.0328,-0.0335 -0.0783,-0.0526 -0.12524,-0.0526 h -3.43676 l 1.67993,-1.73531 c 0.066,-0.0688 0.0653,-0.17745 -0.002,-0.24554 l -1.64395,-1.65135 h -0.71931 l -1.53,1.53705 -1.7593,-1.49154 c -0.0519,-0.0441 -0.12453,-0.0547 -0.18662,-0.0261 -0.0621,0.0289 -0.10125,0.091 -0.10125,0.1591 v 3.55741 L 83.15392,116.66 v 0.49565 l 1.57656,1.55116 v 3.62621 c 0,0.0709 0.0427,0.13511 0.1083,0.16192 0.066,0.0268 0.14182,0.0109 0.19121,-0.0388 l 1.74695,-1.77765 1.64642,1.71662 -1.75966,1.76848 c -0.0667,0.0674 -0.0681,0.17639 -0.002,0.24483 l 1.68028,1.73566 h -3.43579 c -0.0473,0 -0.0924,0.0183 -0.12559,0.0526 l -1.62595,1.66582 v 0.49636 l 1.62877,1.60231 c 0.0325,0.0318 0.0765,0.0494 0.12277,0.0494 h 3.39619 l -1.64148,1.48979 c -0.0346,0.0317 -0.0554,0.0759 -0.0571,0.12382 -0.002,0.0469 0.0159,0.0924 0.049,0.127 l 1.7713,1.84644 -0.11571,0.11677 h 0.71931 l -0.11641,-0.11677 1.6383,-1.71626 1.75577,1.77658 c 0.0505,0.0508 0.12559,0.066 0.19086,0.0392 0.0663,-0.0272 0.10901,-0.0907 0.10901,-0.16192 v -3.6255 l 1.57621,-1.55081 1.57656,1.55081 v 3.6255 c 0,0.0713 0.043,0.13511 0.10865,0.16192 0.066,0.0272 0.14147,0.0116 0.19121,-0.0395 l 1.74625,-1.77623 1.64712,1.71626 -0.11606,0.11677 h 0.71472 l -0.11606,-0.11677"
       style="fill:#ffffff;fill-opacity:1;fill-rule:nonzero;stroke:none;stroke-width:0.03527778"
       id="path278"
       inkscape:connector-curvature="0"
       inkscape:export-xdpi="90.006699"
       inkscape:export-ydpi="90.006699" />
    <path
       d="m 97.93226,153.91381 c -0.0328,-0.0339 -0.078,-0.0536 -0.12559,-0.054 h -7.9e-4 c -0.0469,0 -0.0924,0.0187 -0.12489,0.0522 l -1.57268,1.60055 v -3.27166 c 0,-0.0469 -0.019,-0.0921 -0.0526,-0.12453 l -1.62701,-1.60091 1.62913,-1.66934 c 0.0325,-0.0328 0.0505,-0.0769 0.0505,-0.12277 v -3.25014 l 1.5942,1.35255 c 0.0698,0.0586 0.17286,0.0543 0.23707,-0.0106 l 1.75295,-1.76142 1.6316,1.63971 -1.84715,1.90888 c -0.049,0.0501 -0.0632,0.12488 -0.036,0.1898 0.0275,0.0642 0.091,0.10689 0.16122,0.10689 h 3.77578 l 1.57868,1.61643 -1.57621,1.55045 h -3.77825 c -0.0723,0 -0.13723,0.0448 -0.16298,0.11148 -0.0265,0.0677 -0.008,0.14464 0.0452,0.19262 l 1.83479,1.67393 -1.62701,1.70356 -1.76001,-1.83374 m -5.32694,-5.26132 v -3.55742 c 0,-0.0681 -0.0395,-0.13017 -0.10125,-0.15875 -0.0621,-0.0282 -0.13511,-0.0187 -0.18662,0.0254 l -1.76,1.4919 -1.64607,-1.65417 1.76283,-1.84574 c 0.0325,-0.0342 0.0501,-0.0804 0.0483,-0.127 -0.002,-0.0469 -0.0222,-0.0921 -0.0568,-0.12347 l -1.63372,-1.48978 h 3.39831 c 0.0459,0 0.09,-0.0176 0.12276,-0.0501 l 1.62843,-1.60267 1.62877,1.60267 c 0.0328,0.0325 0.0769,0.0501 0.12312,0.0501 h 3.39619 l -1.64147,1.48942 c -0.0349,0.0317 -0.0557,0.0765 -0.0571,0.12383 -0.002,0.0469 0.0159,0.0928 0.0487,0.127 l 1.77165,1.84608 -1.64606,1.65383 -1.75895,-1.4919 c -0.0522,-0.0444 -0.12524,-0.0536 -0.18662,-0.0254 -0.0621,0.0286 -0.1016,0.0907 -0.1016,0.15875 v 3.55741 l -1.57657,1.61466 -1.57621,-1.61466 m -0.29774,3.46393 c -0.0335,0.0325 -0.0522,0.0776 -0.0522,0.12453 v 3.27307 l -1.58327,-1.60196 c -0.0332,-0.0339 -0.0762,-0.0487 -0.12594,-0.0522 -0.0476,2.6e-4 -0.0924,0.0201 -0.12488,0.054 l -1.75331,1.83656 -1.6383,-1.70639 1.84397,-1.67322 c 0.0536,-0.0487 0.0716,-0.12489 0.0455,-0.19297 -0.0257,-0.067 -0.091,-0.11183 -0.16334,-0.11183 h -3.7778 l -1.57622,-1.55046 1.57833,-1.61643 h 3.77578 0.002 c 0.0967,0 0.17533,-0.079 0.17533,-0.17568 0,-0.0561 -0.0265,-0.10548 -0.0674,-0.13759 l -1.83233,-1.8923 1.63407,-1.64218 1.75577,1.76389 c 0.0642,0.0649 0.16757,0.0691 0.23707,0.0106 l 1.59456,-1.35255 v 3.25014 c 0,0.0459 0.0176,0.09 0.0494,0.12277 l 1.62983,1.66934 -1.62701,1.60091 m -5.40244,-9.40541 c -0.0325,-0.0335 -0.078,-0.0529 -0.12524,-0.0533 -0.0505,0 -0.0924,0.0183 -0.12559,0.0526 l -1.57303,1.59985 v -3.27131 c 0,-0.0473 -0.0187,-0.0921 -0.0526,-0.12488 l -1.62701,-1.60091 1.62948,-1.66934 c 0.0321,-0.0325 0.0501,-0.0765 0.0501,-0.12171 v -3.25085 l 1.59455,1.35185 c 0.0695,0.0593 0.17286,0.0547 0.23672,-0.01 l 1.75542,-1.76425 1.63477,1.64254 -1.8482,1.90852 c -0.0487,0.0505 -0.0624,0.12524 -0.0353,0.19015 0.0279,0.0646 0.0914,0.10689 0.16122,0.10689 h 3.77613 l 1.57798,1.61608 -1.57586,1.55046 h -3.77825 c -0.072,0 -0.13688,0.0448 -0.16298,0.11253 -0.0261,0.0667 -0.009,0.14358 0.0451,0.19227 l 1.83444,1.67322 -1.62913,1.70674 -1.76283,-1.83726 m 9.10202,-5.01404 h 3.77578 0.002 c 0.097,0 0.17498,-0.0787 0.17498,-0.17497 0,-0.0564 -0.0261,-0.10619 -0.0674,-0.13829 l -1.83162,-1.8923 1.6316,-1.64007 1.75295,1.76178 c 0.0639,0.0646 0.16757,0.0691 0.23707,0.01 l 1.5942,-1.35185 v 3.25085 c 0,0.0451 0.018,0.0892 0.0504,0.12171 l 1.62948,1.66934 -1.62701,1.60091 c -0.0335,0.0328 -0.0529,0.0776 -0.0529,0.12488 v 3.27307 l -1.58256,-1.60231 c -0.0332,-0.0335 -0.0797,-0.0487 -0.1263,-0.0519 -0.0473,2.6e-4 -0.0921,0.0201 -0.12488,0.054 l -1.75084,1.83374 -1.63547,-1.70392 1.84361,-1.67323 c 0.0536,-0.0483 0.072,-0.12559 0.0459,-0.19191 -0.0265,-0.0681 -0.091,-0.11289 -0.16333,-0.11289 h -3.7779 l -1.57621,-1.55045 1.57833,-1.61608 m 3.92676,18.30529 1.76248,-1.84644 c 0.0321,-0.0342 0.0497,-0.0797 0.048,-0.127 -0.002,-0.0469 -0.0219,-0.0914 -0.0571,-0.12312 l -1.633,-1.49013 h 3.39796 c 0.0459,0 0.09,-0.0177 0.12311,-0.0494 l 1.62808,-1.60231 v -0.49672 l -1.62596,-1.66546 c -0.0332,-0.0342 -0.078,-0.0529 -0.12523,-0.0529 h -3.43677 l 1.68028,-1.73566 c 0.066,-0.0681 0.0653,-0.17745 -0.002,-0.24448 l -1.75965,-1.76918 1.63795,-1.71591 1.75612,1.77729 c 0.0494,0.0504 0.12489,0.0656 0.19086,0.0392 0.0656,-0.0272 0.1083,-0.091 0.1083,-0.16192 v -3.6262 l 1.57621,-1.55117 v -0.49565 l -1.57621,-1.61467 V 133.893 c 0,-0.0681 -0.0395,-0.13017 -0.10125,-0.1591 -0.0621,-0.0286 -0.13476,-0.0183 -0.18697,0.0257 l -1.75932,1.4919 -1.52964,-1.53705 h -0.71473 l -1.64359,1.65135 c -0.0674,0.0681 -0.0681,0.17674 -0.002,0.24553 l 1.68028,1.73532 h -3.43676 c -0.0476,0 -0.0928,0.019 -0.12559,0.0526 l -1.62631,1.66581 -1.62595,-1.66581 c -0.0328,-0.0335 -0.0783,-0.0526 -0.12524,-0.0526 h -3.43676 l 1.67993,-1.73532 c 0.066,-0.0688 0.0653,-0.17744 -0.002,-0.24553 l -1.64395,-1.65135 h -0.71931 l -1.53,1.53705 -1.7593,-1.4919 c -0.0519,-0.0441 -0.12453,-0.0543 -0.18662,-0.0257 -0.0621,0.0289 -0.10125,0.091 -0.10125,0.15911 v 3.55741 l -1.57656,1.61466 v 0.49566 l 1.57656,1.55116 v 3.6262 c 0,0.0709 0.0427,0.13476 0.10831,0.16193 0.066,0.0268 0.14181,0.0109 0.1912,-0.0392 l 1.74696,-1.7773 1.64641,1.71627 -1.75966,1.76883 c -0.0667,0.067 -0.0681,0.17638 -0.002,0.24447 l 1.68029,1.73567 h -3.43649 c -0.0473,0 -0.0924,0.0187 -0.12559,0.0529 l -1.62595,1.66546 v 0.49671 l 1.62877,1.60232 c 0.0325,0.0317 0.0765,0.0494 0.12277,0.0494 h 3.39619 l -1.64147,1.48978 c -0.0346,0.0318 -0.0554,0.0759 -0.0572,0.12347 -0.002,0.0473 0.0159,0.0928 0.049,0.12735 l 1.7713,1.84609 -0.11572,0.11677 h 0.71932 l -0.11642,-0.11677 1.6383,-1.71591 1.75578,1.77659 c 0.0504,0.0508 0.12559,0.066 0.19085,0.0392 0.0663,-0.0275 0.10901,-0.0907 0.10901,-0.16193 v -3.6255 l 1.57621,-1.55081 1.57656,1.55081 v 3.6255 c 0,0.0713 0.043,0.13476 0.10866,0.16193 0.066,0.0272 0.14146,0.0116 0.1912,-0.0395 l 1.74625,-1.77624 1.64712,1.71591 -0.11606,0.11677 h 0.71473 l -0.11607,-0.11677"
       style="fill:#ffffff;fill-opacity:1;fill-rule:nonzero;stroke:none;stroke-width:0.03527778"
       id="path282"
       inkscape:connector-curvature="0"
       inkscape:export-xdpi="90.006699"
       inkscape:export-ydpi="90.006699" />
    <path
       d="m 75.88365,109.10433 c -0.0328,-0.0342 -0.078,-0.0536 -0.12559,-0.0543 h -7.1e-4 c -0.0469,0 -0.0921,0.0187 -0.12489,0.0522 l -1.57275,1.60055 v -3.27166 c 0,-0.0466 -0.0191,-0.0917 -0.0524,-0.12453 l -1.62719,-1.60091 1.62927,-1.66899 c 0.0324,-0.0328 0.0503,-0.0769 0.0503,-0.12277 v -3.25014 l 1.59427,1.3522 c 0.0698,0.0586 0.17322,0.0543 0.23707,-0.0102 l 1.75295,-1.76142 1.6316,1.63936 -1.84715,1.90888 c -0.049,0.0505 -0.0632,0.12524 -0.036,0.18979 0.0275,0.0646 0.091,0.1069 0.16122,0.1069 h 3.77579 l 1.57868,1.61642 -1.57621,1.55046 h -3.77825 c -0.0723,0 -0.13723,0.0452 -0.16298,0.11183 -0.0265,0.0674 -0.008,0.14429 0.0451,0.19262 l 1.8348,1.67358 -1.62701,1.70356 z M 70.55674,103.843 v -3.55741 c 0,-0.0684 -0.0396,-0.13053 -0.10128,-0.15875 -0.062,-0.0286 -0.13508,-0.0187 -0.18673,0.0254 l -1.75976,1.49154 -1.64606,-1.653815 1.76251,-1.84609 c 0.0326,-0.0339 0.0503,-0.0801 0.0485,-0.127 -0.002,-0.0469 -0.0223,-0.0921 -0.0568,-0.12347 l -1.63364,-1.48943 h 3.39824 c 0.0459,0 0.09,-0.018 0.12262,-0.0504 l 1.62842,-1.60267 1.62885,1.60267 c 0.0328,0.0324 0.0769,0.0504 0.12308,0.0504 h 3.3963 l -1.64147,1.48908 c -0.0349,0.0317 -0.0557,0.0765 -0.0571,0.12382 -0.002,0.0473 0.0159,0.0931 0.0487,0.127 l 1.77165,1.84644 -1.64606,1.653465 -1.75895,-1.49154 c -0.0521,-0.0444 -0.12499,-0.054 -0.18673,-0.0254 -0.062,0.0282 -0.10156,0.0903 -0.10156,0.15875 v 3.55741 l -1.57664,1.61466 z m -0.29767,3.46357 c -0.0338,0.0328 -0.0524,0.078 -0.0524,0.12453 v 3.27307 l -1.58337,-1.60196 c -0.0331,-0.0339 -0.0761,-0.0487 -0.1258,-0.0522 -0.0474,7.1e-4 -0.0926,0.0201 -0.12499,0.0543 l -1.7533,1.83656 -1.63806,-1.70674 1.8438,-1.67287 c 0.0538,-0.049 0.0717,-0.12524 0.0455,-0.19297 -0.0258,-0.067 -0.091,-0.11219 -0.16327,-0.11219 h -3.77789 l -1.57607,-1.55046 1.57811,-1.61642 h 3.77585 0.002 c 0.0967,0 0.1753,-0.079 0.1753,-0.17533 0,-0.0561 -0.0265,-0.10584 -0.0675,-0.13794 l -1.83212,-1.8923 1.63393,-1.64183 1.75605,1.76389 c 0.0641,0.0646 0.16743,0.0688 0.237,0.0102 l 1.59441,-1.3522 v 3.25015 c 0,0.0459 0.0176,0.09 0.0496,0.12276 l 1.62952,1.66899 z m -5.40258,-9.405055 c -0.0324,-0.0339 -0.0779,-0.0529 -0.12499,-0.0533 -0.0507,0 -0.0928,0.018 -0.12584,0.0522 l -1.57304,1.59984 v -3.2713 c 0,-0.0469 -0.0186,-0.0917 -0.0523,-0.12489 l -1.62704,-1.6009 1.62937,-1.669 c 0.0321,-0.0325 0.05,-0.0765 0.05,-0.12206 v -3.25084 l 1.59442,1.35184 c 0.0696,0.0593 0.17293,0.0547 0.23699,-0.01 l 1.75522,-1.76424 1.63477,1.64218 -1.84796,1.90853 c -0.0489,0.0508 -0.0627,0.12559 -0.0354,0.19015 0.0279,0.0646 0.0912,0.10689 0.16126,0.10689 h 3.7761 l 1.57783,1.61608 -1.57579,1.55081 h -3.77814 c -0.0721,0 -0.13684,0.0448 -0.16302,0.11218 -0.0262,0.0667 -0.008,0.14358 0.0452,0.19262 l 1.83444,1.67287 -1.62926,1.70674 z m 9.10191,-5.01438 h 3.77804 c 0.097,0 0.17498,-0.0787 0.17498,-0.17498 0,-0.0561 -0.0261,-0.10618 -0.0674,-0.13793 l -1.83163,-1.89266 1.6316,-1.63971 1.75295,1.76178 c 0.0639,0.0642 0.16757,0.0688 0.23742,0.01 l 1.59385,-1.35185 v 3.25084 c 0,0.0455 0.018,0.0896 0.0504,0.12206 l 1.62948,1.669 -1.62736,1.6009 c -0.0332,0.0332 -0.0526,0.078 -0.0526,0.12489 v 3.27307 l -1.58257,-1.60232 c -0.0332,-0.0335 -0.0797,-0.0483 -0.12629,-0.0515 -0.0469,3.5e-4 -0.0921,0.0198 -0.12489,0.054 l -1.75083,1.83339 -1.63548,-1.70392 1.84362,-1.67287 c 0.0536,-0.0487 0.072,-0.12594 0.0459,-0.19227 -0.0265,-0.0677 -0.091,-0.11253 -0.16334,-0.11253 h -3.77797 l -1.57621,-1.55081 z m 3.92691,18.305635 1.76248,-1.84644 c 0.0321,-0.0342 0.0497,-0.0797 0.048,-0.127 -0.002,-0.0473 -0.0219,-0.0917 -0.0572,-0.12312 l -1.63301,-1.49013 h 3.39795 c 0.0459,0 0.09,-0.018 0.12312,-0.0497 l 1.62807,-1.60232 v -0.49636 l -1.62595,-1.66581 c -0.0332,-0.0339 -0.078,-0.0526 -0.12524,-0.0526 h -3.43676 l 1.68028,-1.73567 c 0.066,-0.0684 0.0653,-0.17745 -0.002,-0.24483 l -1.75965,-1.768825 1.63795,-1.71591 1.75612,1.776935 c 0.0494,0.0505 0.12489,0.0656 0.19086,0.0392 0.0656,-0.0268 0.1083,-0.091 0.1083,-0.161915 v -3.62586 l 1.57619,-1.55151 v -0.49566 l -1.57621,-1.61431 v -3.55741 c 0,-0.0684 -0.0395,-0.13053 -0.10125,-0.1591 -0.0621,-0.0286 -0.13476,-0.0183 -0.18697,0.0257 l -1.7593,1.49155 -1.52965,-1.53706 h -0.71472 l -1.6436,1.65171 c -0.0674,0.0677 -0.0681,0.17639 -0.002,0.24553 l 1.68028,1.73496 h -3.43685 c -0.0475,0 -0.0926,0.019 -0.12542,0.0526 l -1.62649,1.66581 -1.62591,-1.66581 c -0.0328,-0.0335 -0.0783,-0.0526 -0.12513,-0.0526 h -3.43684 l 1.67983,-1.73496 c 0.0661,-0.0691 0.0654,-0.1778 -0.002,-0.24553 L 66.979,88.904615 h -0.71932 l -1.52989,1.53706 -1.75948,-1.49155 c -0.052,-0.0441 -0.12474,-0.0543 -0.18672,-0.0257 -0.062,0.0286 -0.10129,0.0907 -0.10129,0.1591 v 3.55741 l -1.57649,1.61431 v 0.49566 l 1.57649,1.55151 v 3.62585 c 0,0.0709 0.0427,0.135115 0.10859,0.161925 0.0657,0.0268 0.1415,0.0109 0.19113,-0.0392 l 1.74664,-1.776935 1.64677,1.71626 -1.75976,1.768475 c -0.0668,0.0674 -0.0682,0.17639 -0.002,0.24482 l 1.68024,1.73567 h -3.43683 c -0.0472,0 -0.0923,0.0187 -0.12538,0.0526 l -1.62609,1.66582 v 0.49636 l 1.62885,1.60232 c 0.0324,0.0317 0.0765,0.0497 0.12262,0.0497 h 3.39619 l -1.64123,1.48943 c -0.0349,0.0317 -0.0556,0.0759 -0.0572,0.12382 -0.002,0.0473 0.0159,0.0928 0.0489,0.127 l 1.77148,1.84644 -0.11575,0.11677 h 0.71932 l -0.11642,-0.11677 1.63805,-1.71626 1.75606,1.77658 c 0.0503,0.0508 0.12538,0.066 0.19085,0.0392 0.0661,-0.0272 0.10887,-0.0907 0.10887,-0.16192 v -3.6255 l 1.57603,-1.55081 1.57664,1.55081 v 3.6255 c 0,0.0713 0.043,0.13511 0.10887,0.16192 0.0657,0.0272 0.14125,0.0116 0.19113,-0.0392 l 1.74618,-1.77658 1.64712,1.71626 -0.11606,0.11677 h 0.71472 l -0.11606,-0.11677"
       style="fill:#ffffff;fill-opacity:1;fill-rule:nonzero;stroke:none;stroke-width:0.03527778"
       id="path290"
       inkscape:connector-curvature="0"
       inkscape:export-xdpi="90.006699"
       inkscape:export-ydpi="90.006699" />
    <path
       d="m 75.88365,131.50924 c -0.0328,-0.0342 -0.078,-0.054 -0.12559,-0.0543 h -7.1e-4 c -0.0469,0 -0.0921,0.0187 -0.12489,0.0522 l -1.57275,1.60056 v -3.27167 c 0,-0.0466 -0.0191,-0.0917 -0.0524,-0.12453 l -1.62719,-1.6009 1.62927,-1.66935 c 0.0324,-0.0324 0.0503,-0.0765 0.0503,-0.12241 v -3.25014 l 1.59427,1.35219 c 0.0698,0.0586 0.17322,0.0543 0.23707,-0.0106 l 1.75295,-1.76106 1.6316,1.63936 -1.84715,1.90888 c -0.049,0.0501 -0.0632,0.12488 -0.036,0.18979 0.0275,0.0646 0.091,0.10689 0.16122,0.10689 h 3.77579 l 1.57868,1.61643 -1.57621,1.55046 h -3.77825 c -0.0723,0 -0.13723,0.0448 -0.16298,0.11183 -0.0265,0.0674 -0.008,0.14429 0.0451,0.19262 l 1.8348,1.67358 -1.62701,1.70356 z m -5.32691,-5.26168 v -3.55706 c 0,-0.0684 -0.0396,-0.13017 -0.10128,-0.1591 -0.062,-0.0282 -0.13508,-0.0183 -0.18673,0.0257 l -1.75976,1.49155 -1.64606,-1.65382 1.76251,-1.84609 c 0.0326,-0.0339 0.0503,-0.0801 0.0485,-0.127 -0.002,-0.0469 -0.0223,-0.0921 -0.0568,-0.12347 l -1.63364,-1.48943 h 3.39824 c 0.0459,0 0.09,-0.018 0.12262,-0.0505 l 1.62842,-1.60266 1.62885,1.60266 c 0.0328,0.0325 0.0769,0.0505 0.12308,0.0505 h 3.3963 l -1.64147,1.48908 c -0.0349,0.0317 -0.0557,0.0765 -0.0571,0.12382 -0.002,0.0473 0.0159,0.0931 0.0487,0.127 l 1.77165,1.84644 -1.64606,1.65347 -1.75895,-1.49154 c -0.0521,-0.0448 -0.12499,-0.054 -0.18673,-0.0257 -0.062,0.0289 -0.10156,0.0907 -0.10156,0.1591 v 3.55706 l -1.57664,1.61501 z m -0.29767,3.46393 c -0.0338,0.0328 -0.0524,0.078 -0.0524,0.12453 v 3.27307 l -1.58337,-1.60196 c -0.0331,-0.0339 -0.0761,-0.0487 -0.1258,-0.0522 -0.0474,2.6e-4 -0.0926,0.0201 -0.12499,0.0543 l -1.7533,1.83656 -1.63806,-1.70674 1.8438,-1.67287 c 0.0538,-0.049 0.0717,-0.12524 0.0455,-0.19297 -0.0258,-0.0674 -0.091,-0.11218 -0.16327,-0.11218 h -3.77789 l -1.57607,-1.55047 1.57811,-1.61643 h 3.77585 0.002 c 0.0967,0 0.1753,-0.079 0.1753,-0.17532 0,-0.0565 -0.0265,-0.10584 -0.0675,-0.13794 l -1.83212,-1.8923 1.63393,-1.64218 1.75605,1.76389 c 0.0641,0.0649 0.16743,0.0692 0.237,0.0106 l 1.59441,-1.3522 v 3.25014 c 0,0.0459 0.0176,0.09 0.0496,0.12241 l 1.62952,1.66935 z m -5.40258,-9.40541 c -0.0324,-0.0335 -0.0779,-0.0529 -0.12499,-0.0533 -0.0507,0 -0.0928,0.0183 -0.12584,0.0526 l -1.57304,1.59984 v -3.27095 c 0,-0.0473 -0.0186,-0.0921 -0.0523,-0.12524 l -1.62704,-1.6009 1.62937,-1.66935 c 0.0321,-0.0321 0.05,-0.0762 0.05,-0.12171 v -3.25085 l 1.59442,1.35185 c 0.0696,0.0593 0.17293,0.0547 0.23699,-0.01 l 1.75522,-1.7646 1.63477,1.64254 -1.84796,1.90852 c -0.0489,0.0504 -0.0627,0.12524 -0.0354,0.19015 0.0279,0.0646 0.0912,0.10689 0.16126,0.10689 h 3.7761 l 1.57783,1.61606 -1.57579,1.55045 h -3.77814 c -0.0721,0 -0.13684,0.0448 -0.16302,0.11254 -0.0262,0.0667 -0.008,0.14358 0.0452,0.19262 l 1.83444,1.67287 -1.62926,1.70674 z m 9.10191,-5.01403 h 3.77804 c 0.097,0 0.17498,-0.0787 0.17498,-0.17498 0,-0.0561 -0.0261,-0.10619 -0.0674,-0.13829 l -1.83163,-1.8923 1.6316,-1.64006 1.75295,1.76212 c 0.0639,0.0642 0.16757,0.0688 0.23742,0.01 l 1.59385,-1.35184 v 3.25085 c 0,0.0455 0.018,0.0896 0.0504,0.1217 l 1.62948,1.66935 -1.62736,1.6009 c -0.0332,0.0332 -0.0526,0.078 -0.0526,0.12524 v 3.27272 l -1.58256,-1.60232 c -0.0332,-0.0335 -0.0797,-0.0487 -0.1263,-0.0519 -0.0469,2.7e-4 -0.0921,0.0201 -0.12488,0.0543 l -1.75084,1.83339 -1.63547,-1.70392 1.84361,-1.67287 c 0.0536,-0.0487 0.072,-0.12594 0.0459,-0.19226 -0.0265,-0.0681 -0.091,-0.11289 -0.16333,-0.11289 h -3.77797 l -1.57621,-1.55046 z m 3.92691,18.30564 1.76248,-1.84679 c 0.0321,-0.0342 0.0497,-0.0794 0.048,-0.12665 -0.002,-0.0473 -0.0219,-0.0917 -0.0572,-0.12347 l -1.63301,-1.49014 h 3.39795 c 0.0459,0 0.09,-0.0177 0.12312,-0.0494 l 1.62807,-1.60231 v -0.49636 l -1.62595,-1.66582 c -0.0332,-0.0342 -0.078,-0.0526 -0.12524,-0.0526 h -3.43676 l 1.68028,-1.73566 c 0.066,-0.0684 0.0653,-0.17745 -0.002,-0.24483 l -1.75965,-1.76883 1.63794,-1.71627 1.75613,1.77765 c 0.0494,0.0501 0.12489,0.0653 0.19085,0.0388 0.0656,-0.0268 0.10831,-0.091 0.10831,-0.16192 v -3.62621 l 1.57621,-1.55116 v -0.49565 l -1.57621,-1.61467 v -3.55741 c 0,-0.0681 -0.0395,-0.12982 -0.10125,-0.15875 -0.0621,-0.0289 -0.13476,-0.0183 -0.18697,0.0257 l -1.7593,1.49155 -1.52965,-1.53706 h -0.71473 l -1.64359,1.65136 c -0.0674,0.0681 -0.0681,0.17674 -0.002,0.24553 l 1.68028,1.73531 h -3.43686 c -0.0476,0 -0.0926,0.0194 -0.12541,0.0526 l -1.62652,1.66582 -1.62591,-1.66582 c -0.0328,-0.0332 -0.0783,-0.0526 -0.12513,-0.0526 h -3.43684 l 1.67983,-1.73531 c 0.0661,-0.0688 0.0654,-0.17745 -0.002,-0.24553 L 66.979,111.30943 h -0.71932 l -1.52989,1.53705 -1.75948,-1.49154 c -0.052,-0.0441 -0.12474,-0.0547 -0.18672,-0.0257 -0.062,0.0289 -0.10129,0.0907 -0.10129,0.15875 v 3.55741 l -1.57649,1.61466 v 0.49566 l 1.57649,1.55116 v 3.6262 c 0,0.0709 0.0427,0.13511 0.10859,0.16193 0.0657,0.0268 0.1415,0.0109 0.19113,-0.0388 l 1.74664,-1.77765 1.64677,1.71661 -1.75976,1.76848 c -0.0668,0.0674 -0.0682,0.17639 -0.002,0.24483 l 1.68024,1.73567 h -3.43683 c -0.0472,0 -0.0923,0.0183 -0.12538,0.0526 l -1.62609,1.66582 v 0.49636 l 1.62885,1.60231 c 0.0324,0.0318 0.0765,0.0494 0.12262,0.0494 h 3.39619 l -1.64123,1.48979 c -0.0349,0.0317 -0.0556,0.0759 -0.0572,0.12382 -0.002,0.0473 0.0159,0.0924 0.0489,0.127 l 1.77148,1.84644 -0.11575,0.11677 h 0.71932 l -0.11642,-0.11677 1.63805,-1.71626 1.75606,1.77658 c 0.0503,0.0508 0.12538,0.066 0.19085,0.0392 0.0661,-0.0272 0.10887,-0.0907 0.10887,-0.16192 v -3.6255 l 1.57603,-1.55081 1.57664,1.55081 v 3.6255 c 0,0.0713 0.043,0.13511 0.10887,0.16192 0.0657,0.0272 0.14125,0.0116 0.19113,-0.0395 l 1.74618,-1.77623 1.64712,1.71626 -0.11606,0.11677 h 0.71472 l -0.11606,-0.11677"
       style="fill:#ffffff;fill-opacity:1;fill-rule:nonzero;stroke:none;stroke-width:0.03527778"
       id="path294"
       inkscape:connector-curvature="0"
       inkscape:export-xdpi="90.006699"
       inkscape:export-ydpi="90.006699" />
    <path
       d="m 75.88365,153.91381 c -0.0328,-0.0339 -0.078,-0.0536 -0.12559,-0.054 h -7.1e-4 c -0.0469,0 -0.0921,0.0187 -0.12489,0.0522 l -1.57275,1.60055 v -3.27166 c 0,-0.0469 -0.0191,-0.0921 -0.0524,-0.12453 l -1.62719,-1.60091 1.62927,-1.66934 c 0.0324,-0.0328 0.0503,-0.0769 0.0503,-0.12277 v -3.24979 l 1.59427,1.3522 c 0.0698,0.0586 0.17322,0.0543 0.23707,-0.0106 l 1.75295,-1.76142 1.6316,1.63971 -1.84715,1.90888 c -0.049,0.0501 -0.0632,0.12488 -0.036,0.1898 0.0275,0.0642 0.091,0.10689 0.16122,0.10689 h 3.77579 l 1.57868,1.61643 -1.57621,1.55045 h -3.77825 c -0.0723,0 -0.13723,0.0448 -0.16298,0.11148 -0.0265,0.0677 -0.008,0.14464 0.0451,0.19262 l 1.8348,1.67393 -1.62701,1.70356 z m -5.32691,-5.26133 v -3.55741 c 0,-0.0681 -0.0396,-0.13018 -0.10128,-0.15875 -0.062,-0.0282 -0.13508,-0.0187 -0.18673,0.0254 l -1.75976,1.4919 -1.64606,-1.65418 1.76251,-1.84573 c 0.0326,-0.0342 0.0503,-0.0804 0.0485,-0.127 -0.002,-0.0469 -0.0223,-0.0921 -0.0568,-0.12347 l -1.63364,-1.48978 h 3.39824 c 0.0459,0 0.09,-0.0176 0.12262,-0.0501 l 1.62842,-1.60267 1.62885,1.60267 c 0.0328,0.0325 0.0769,0.0501 0.12308,0.0501 h 3.3963 l -1.64147,1.48942 c -0.0349,0.0317 -0.0557,0.0765 -0.0571,0.12383 -0.002,0.0469 0.0159,0.0928 0.0487,0.127 l 1.77165,1.84608 -1.64606,1.65383 -1.75895,-1.4919 c -0.0521,-0.0444 -0.12499,-0.0536 -0.18673,-0.0254 -0.062,0.0286 -0.10156,0.0907 -0.10156,0.15875 v 3.55741 l -1.57664,1.61466 z m -0.29767,3.46393 c -0.0338,0.0325 -0.0524,0.0776 -0.0524,0.12453 v 3.27307 l -1.58337,-1.60196 c -0.0331,-0.0339 -0.0761,-0.0487 -0.1258,-0.0522 -0.0474,2.6e-4 -0.0926,0.0201 -0.12499,0.054 l -1.7533,1.83656 -1.63806,-1.70639 1.8438,-1.67322 c 0.0538,-0.0487 0.0717,-0.12488 0.0455,-0.19297 -0.0258,-0.067 -0.091,-0.11183 -0.16327,-0.11183 h -3.77789 l -1.57607,-1.55046 1.57811,-1.61643 h 3.77585 0.002 c 0.0967,0 0.1753,-0.079 0.1753,-0.17568 0,-0.0561 -0.0265,-0.10548 -0.0675,-0.13758 l -1.83212,-1.8923 1.63393,-1.64218 1.75605,1.76388 c 0.0641,0.0649 0.16743,0.0691 0.237,0.0106 l 1.59441,-1.35219 v 3.24979 c 0,0.0459 0.0176,0.09 0.0496,0.12276 l 1.62952,1.66935 z M 64.85649,142.711 c -0.0324,-0.0335 -0.0779,-0.0529 -0.12499,-0.0533 -0.0507,0 -0.0928,0.0183 -0.12584,0.0526 l -1.57304,1.59985 v -3.27131 c 0,-0.0473 -0.0186,-0.0917 -0.0523,-0.12488 l -1.62704,-1.60091 1.62937,-1.66934 c 0.0321,-0.0325 0.05,-0.0765 0.05,-0.12171 v -3.25085 l 1.59442,1.35185 c 0.0696,0.0593 0.17293,0.0547 0.23699,-0.01 l 1.75522,-1.76425 1.63477,1.64254 -1.84796,1.90852 c -0.0489,0.0505 -0.0627,0.12524 -0.0354,0.19015 0.0279,0.0646 0.0912,0.10689 0.16126,0.10689 h 3.7761 l 1.57783,1.61611 -1.57579,1.55046 h -3.77814 c -0.0721,0 -0.13684,0.0448 -0.16302,0.11253 -0.0262,0.0667 -0.008,0.14358 0.0452,0.19227 l 1.83444,1.67322 -1.62926,1.70674 z m 9.10191,-5.01403 h 3.77804 c 0.097,0 0.17498,-0.0787 0.17498,-0.17498 0,-0.0564 -0.0261,-0.10619 -0.0674,-0.13829 l -1.83163,-1.8923 1.6316,-1.64006 1.75295,1.76177 c 0.0639,0.0646 0.16757,0.0691 0.23742,0.01 l 1.59385,-1.35185 v 3.25085 c 0,0.0451 0.018,0.0892 0.0504,0.12171 l 1.62948,1.66934 -1.62736,1.60091 c -0.0332,0.0332 -0.0526,0.0776 -0.0526,0.12488 v 3.27308 l -1.58256,-1.60232 c -0.0332,-0.0335 -0.0797,-0.0487 -0.1263,-0.0519 -0.0469,2.6e-4 -0.0921,0.0201 -0.12488,0.054 l -1.75084,1.83374 -1.63547,-1.70392 1.84361,-1.67322 c 0.0536,-0.0483 0.072,-0.12559 0.0459,-0.19191 -0.0265,-0.0681 -0.091,-0.11289 -0.16333,-0.11289 h -3.77797 l -1.57621,-1.55046 z m 3.92691,18.30528 1.76248,-1.84644 c 0.0321,-0.0342 0.0497,-0.0797 0.048,-0.12664 -0.002,-0.0473 -0.0219,-0.0917 -0.0572,-0.12347 l -1.63301,-1.49014 h 3.39795 c 0.0459,0 0.09,-0.0177 0.12312,-0.0494 l 1.62807,-1.60231 v -0.49672 l -1.62595,-1.66546 c -0.0332,-0.0342 -0.078,-0.0529 -0.12524,-0.0529 h -3.43676 l 1.68028,-1.73566 c 0.066,-0.0681 0.0653,-0.17745 -0.002,-0.24448 l -1.75965,-1.76918 1.63795,-1.71591 1.75612,1.77729 c 0.0494,0.0504 0.12489,0.0656 0.19086,0.0392 0.0656,-0.0272 0.1083,-0.091 0.1083,-0.16192 v -3.6262 l 1.57621,-1.55117 v -0.49565 l -1.57621,-1.61467 v -3.55741 c 0,-0.0681 -0.0395,-0.13017 -0.10125,-0.1591 -0.0621,-0.0286 -0.13476,-0.0183 -0.18697,0.0257 l -1.7593,1.49189 -1.52965,-1.53705 h -0.71473 l -1.64359,1.65135 c -0.0674,0.0681 -0.0681,0.17675 -0.002,0.24554 l 1.68028,1.73496 h -3.43685 c -0.0476,0 -0.0926,0.0194 -0.12542,0.0529 l -1.62651,1.66582 -1.62591,-1.66582 c -0.0328,-0.0335 -0.0783,-0.0529 -0.12513,-0.0529 h -3.43684 l 1.67983,-1.73496 c 0.0661,-0.0688 0.0654,-0.17745 -0.002,-0.24553 L 66.979,133.71446 h -0.71932 l -1.52989,1.53705 -1.75948,-1.4919 c -0.052,-0.0441 -0.12474,-0.0543 -0.18672,-0.0257 -0.062,0.0289 -0.10129,0.091 -0.10129,0.15911 v 3.55741 l -1.57649,1.61466 v 0.49565 l 1.57649,1.55117 v 3.6262 c 0,0.0709 0.0427,0.13476 0.10859,0.16192 0.0657,0.0268 0.1415,0.0109 0.19113,-0.0392 l 1.74664,-1.77729 1.64677,1.71626 -1.75976,1.76883 c -0.0668,0.067 -0.0682,0.17639 -0.002,0.24448 l 1.68024,1.73566 h -3.43683 c -0.0472,0 -0.0923,0.0187 -0.12538,0.0529 l -1.62609,1.66546 v 0.49672 l 1.62885,1.60231 c 0.0324,0.0317 0.0765,0.0494 0.12262,0.0494 h 3.39619 l -1.64123,1.48978 c -0.0349,0.0317 -0.0556,0.0759 -0.0572,0.12383 -0.002,0.0469 0.0159,0.0924 0.0489,0.127 l 1.77148,1.84608 -0.11575,0.11677 h 0.71932 l -0.11642,-0.11677 1.63805,-1.71591 1.75606,1.77659 c 0.0503,0.0508 0.12538,0.066 0.19085,0.0392 0.0661,-0.0275 0.10887,-0.0907 0.10887,-0.16192 v -3.6255 l 1.57603,-1.55081 1.57664,1.55081 v 3.6255 c 0,0.0713 0.043,0.13476 0.10887,0.16192 0.0657,0.0272 0.14125,0.0116 0.19113,-0.0395 l 1.74618,-1.77624 1.64712,1.71592 -0.11606,0.11677 h 0.71472 l -0.11606,-0.11678"
       style="fill:#ffffff;fill-opacity:1;fill-rule:nonzero;stroke:none;stroke-width:0.03527778"
       id="path298"
       inkscape:connector-curvature="0"
       inkscape:export-xdpi="90.006699"
       inkscape:export-ydpi="90.006699" />
  </g>
</svg>
