<?xml version="1.0" standalone="no"?>
<!DOCTYPE svg PUBLIC "-//W3C//DTD SVG 20010904//EN"
 "http://www.w3.org/TR/2001/REC-SVG-20010904/DTD/svg10.dtd">
<svg version="1.0" xmlns="http://www.w3.org/2000/svg"
 width="446.000000pt" height="446.000000pt" viewBox="0 0 446.000000 446.000000"
 preserveAspectRatio="xMidYMid meet">
<metadata>
Created by potrace 1.14, written by Peter Selinger 2001-2017
</metadata>
<g transform="translate(0.000000,446.000000) scale(0.100000,-0.100000)"
fill="#000000" stroke="none">
<path d="M2166 4441 c-38 -25 -45 -39 -56 -107 -12 -70 -53 -136 -130 -208
-102 -94 -308 -219 -480 -291 -250 -104 -396 -184 -535 -291 -307 -236 -450
-508 -440 -838 5 -195 66 -387 181 -576 l40 -65 -54 -35 c-100 -64 -187 -175
-239 -300 -63 -153 -62 -144 -63 -928 0 -791 -3 -759 65 -788 44 -18 69 -18
105 1 62 32 60 6 60 777 0 604 3 711 16 763 47 181 148 295 300 340 71 22 99
54 98 114 0 42 -8 58 -61 132 -107 148 -191 336 -210 472 -9 62 -9 198 -1 247
53 302 295 536 753 730 311 131 525 264 664 411 l54 58 72 -73 c140 -141 340
-263 639 -391 328 -140 527 -280 646 -455 54 -80 77 -129 101 -216 68 -250 -6
-535 -213 -810 -21 -28 -41 -65 -44 -82 -12 -61 32 -121 102 -138 45 -11 119
-51 158 -84 50 -44 95 -120 127 -213 27 -82 27 -83 28 -377 l1 -295 -28 -30
c-95 -100 -258 -217 -391 -282 -194 -93 -380 -116 -566 -68 -238 60 -346 75
-550 75 -66 0 -133 -2 -150 -4 -16 -2 -57 -7 -90 -11 -32 -4 -69 -11 -82 -16
-13 -5 -23 -5 -23 -2 0 4 28 49 63 100 l62 93 70 -7 c185 -17 313 5 464 82 99
50 129 72 228 171 150 149 250 354 289 589 16 99 21 276 10 332 -3 15 -8 48
-11 72 -10 69 -53 208 -90 288 -99 213 -251 372 -449 468 -269 131 -585 94
-828 -97 -177 -139 -314 -364 -367 -603 -6 -27 -13 -63 -16 -80 -11 -55 -13
-269 -3 -340 41 -307 196 -578 425 -742 l62 -44 -61 -87 c-275 -393 -264 -374
-254 -425 14 -74 91 -112 163 -81 95 41 221 80 292 90 20 3 43 7 51 9 36 9
163 18 255 17 161 -1 263 -16 473 -68 236 -59 414 -50 632 32 99 37 220 102
322 174 105 73 302 262 318 305 7 17 10 147 9 359 0 313 -2 336 -24 423 -44
173 -150 331 -277 413 l-54 35 45 74 c61 101 118 237 148 351 36 134 38 346 5
468 -69 258 -242 478 -512 654 -117 76 -191 115 -360 189 -292 127 -457 226
-575 344 -75 74 -120 151 -117 197 7 90 -112 151 -192 99z m238 -1837 c227
-56 417 -260 493 -529 23 -84 28 -134 27 -285 -1 -168 -15 -239 -77 -380 -19
-43 -83 -150 -96 -160 -3 -3 -19 -21 -35 -40 -44 -54 -138 -125 -208 -158 -80
-37 -232 -70 -243 -52 -3 5 15 39 40 75 61 89 61 147 3 194 -34 27 -89 32
-126 12 -12 -6 -55 -59 -95 -116 l-74 -104 -44 28 c-139 87 -266 267 -319 446
-54 188 -46 429 21 611 61 166 201 335 337 407 82 44 216 76 291 70 25 -2 72
-11 105 -19z"/>
</g>
</svg>
