<?xml version="1.0" standalone="no"?>
<!DOCTYPE svg PUBLIC "-//W3C//DTD SVG 20010904//EN"
 "http://www.w3.org/TR/2001/REC-SVG-20010904/DTD/svg10.dtd">
<svg version="1.0" xmlns="http://www.w3.org/2000/svg"
 width="950.000000pt" height="950.000000pt" viewBox="0 0 950.000000 950.000000"
 preserveAspectRatio="xMidYMid meet">
<metadata>
Created by potrace 1.14, written by Peter Selinger 2001-2017
</metadata>
<g transform="translate(0.000000,950.000000) scale(0.100000,-0.100000)"
fill="#000000" stroke="none">
<path d="M4643 9484 c-51 -19 -112 -76 -137 -128 -11 -23 -19 -68 -21 -117 -2
-45 -9 -87 -16 -95 -6 -8 -9 -14 -6 -14 9 0 -51 -107 -82 -150 -55 -74 -162
-185 -241 -252 -66 -55 -222 -169 -247 -181 -13 -6 -23 -14 -23 -19 0 -4 -5
-8 -11 -8 -6 0 -29 -13 -52 -29 -125 -85 -433 -241 -702 -356 -99 -42 -200
-86 -225 -97 -81 -36 -395 -192 -400 -199 -3 -3 -15 -9 -27 -13 -13 -4 -23
-12 -23 -17 0 -5 -6 -9 -13 -9 -8 0 -32 -13 -53 -28 -21 -15 -61 -41 -89 -57
-27 -15 -52 -31 -55 -34 -3 -3 -44 -33 -92 -65 -49 -33 -88 -63 -88 -68 0 -4
-4 -8 -10 -8 -9 0 -30 -16 -74 -55 -6 -5 -38 -32 -71 -60 -142 -119 -289 -280
-418 -456 -95 -130 -248 -426 -273 -529 -2 -8 -15 -57 -29 -108 -14 -51 -28
-109 -31 -130 -3 -20 -7 -44 -10 -52 -5 -15 -11 -62 -19 -165 -11 -132 -2
-354 19 -475 3 -14 7 -43 11 -65 3 -22 10 -56 15 -75 5 -19 11 -46 14 -60 4
-21 33 -119 66 -220 4 -14 18 -50 30 -80 32 -79 38 -94 38 -100 1 -9 132 -265
164 -321 68 -115 93 -154 106 -168 10 -10 10 -16 1 -27 -6 -8 -15 -14 -20 -14
-11 0 -103 -62 -107 -72 -2 -5 -8 -8 -13 -8 -24 0 -193 -159 -270 -255 -89
-112 -183 -281 -234 -424 -28 -80 -66 -206 -69 -235 -2 -11 -6 -32 -9 -46 -4
-14 -10 -41 -14 -60 -4 -19 -9 -722 -10 -1562 l-3 -1527 22 -43 c50 -99 125
-147 228 -144 51 1 77 8 118 30 28 16 52 32 52 36 0 3 8 15 18 26 17 17 26 35
41 74 3 8 8 699 11 1536 3 1049 8 1525 16 1535 5 8 10 21 9 29 -1 8 5 35 12
60 8 25 16 54 18 66 14 62 119 279 152 312 7 7 13 17 13 22 0 9 130 143 165
170 26 20 114 73 140 84 52 22 175 64 175 60 0 -13 118 60 138 86 28 36 57
114 56 150 -1 73 -17 109 -90 206 -91 119 -186 263 -239 359 -21 39 -44 79
-51 90 -7 11 -14 25 -15 30 -2 6 -15 37 -29 70 -25 56 -41 93 -45 105 -1 3 -7
17 -13 33 -17 41 -63 179 -68 202 -2 11 -10 49 -19 85 -32 139 -39 205 -39
370 0 133 7 239 20 282 3 9 7 27 9 40 4 20 16 75 20 88 1 3 4 12 8 20 3 8 11
33 17 55 11 36 30 80 78 185 36 79 153 252 233 344 57 66 136 142 249 241 45
39 238 178 270 195 14 7 27 16 30 20 8 10 130 80 141 80 5 0 9 3 9 8 0 4 10
12 23 18 36 17 211 105 227 115 8 5 25 13 38 19 12 5 43 19 70 30 74 33 102
46 172 75 108 46 121 51 230 100 184 83 458 224 595 308 35 21 220 141 230
149 6 4 44 34 85 65 41 31 82 65 91 75 9 10 20 18 25 18 11 1 233 225 260 264
23 32 17 36 99 -59 60 -70 172 -177 235 -226 18 -13 39 -31 48 -40 25 -24 230
-168 258 -181 13 -6 24 -15 24 -20 0 -4 7 -8 15 -8 8 0 15 -4 15 -10 0 -5 6
-10 14 -10 7 0 19 -7 26 -15 7 -8 21 -15 31 -15 11 0 19 -3 19 -8 0 -4 17 -16
38 -27 20 -11 39 -22 42 -25 16 -16 360 -186 505 -250 77 -33 149 -65 160 -70
11 -5 70 -30 130 -55 103 -44 378 -178 400 -195 6 -4 31 -19 56 -33 60 -33 91
-50 103 -59 6 -5 49 -33 95 -63 104 -69 240 -174 305 -234 50 -48 163 -162
181 -184 70 -83 175 -231 175 -247 0 -5 6 -15 13 -22 21 -22 88 -167 118 -259
59 -181 78 -308 74 -504 -4 -145 -8 -208 -19 -243 -3 -9 -8 -35 -11 -57 -8
-49 -56 -226 -65 -240 -4 -5 -11 -26 -15 -45 -7 -33 -43 -122 -65 -162 -6 -10
-10 -25 -10 -33 0 -8 -4 -15 -8 -15 -5 0 -15 -18 -22 -41 -8 -22 -17 -42 -21
-45 -4 -2 -18 -25 -30 -52 -48 -98 -257 -411 -291 -433 -22 -14 -55 -121 -51
-162 7 -71 9 -77 21 -89 7 -7 12 -17 12 -24 0 -29 102 -108 152 -118 61 -12
87 -21 161 -54 26 -12 50 -22 55 -23 4 -1 33 -19 64 -40 79 -54 177 -152 227
-227 57 -85 140 -265 144 -310 1 -12 4 -22 8 -22 3 0 10 -19 14 -42 4 -24 9
-50 11 -58 20 -92 23 -178 21 -715 l-2 -600 -75 -72 c-96 -92 -132 -124 -182
-165 -22 -18 -46 -38 -53 -45 -13 -12 -225 -167 -261 -190 -10 -7 -36 -24 -57
-38 -21 -14 -40 -25 -43 -25 -3 0 -29 -15 -59 -34 -29 -19 -56 -32 -59 -29 -3
4 -6 2 -6 -4 0 -9 -42 -27 -46 -20 -1 1 -10 -5 -20 -14 -19 -16 -167 -81 -254
-112 -123 -43 -268 -79 -375 -94 -83 -11 -342 -9 -410 3 -109 19 -157 30 -200
44 -18 6 -41 12 -51 15 -10 2 -34 9 -53 14 -19 6 -38 8 -42 5 -5 -3 -9 -1 -9
3 0 5 -26 14 -57 20 -32 6 -69 14 -83 18 -14 3 -41 8 -60 11 -19 3 -51 9 -70
14 -30 7 -69 13 -160 25 -8 1 -43 5 -77 9 -34 4 -71 9 -82 11 -38 7 -267 18
-386 19 -128 0 -450 -17 -450 -24 0 -1 -16 -3 -35 -5 -38 -3 -113 -13 -146
-19 -12 -2 -37 -7 -55 -10 -19 -3 -46 -8 -61 -11 -16 -3 -28 -3 -28 1 0 5 90
139 113 169 9 11 120 169 140 198 33 50 29 48 87 37 167 -32 438 -35 601 -5
39 7 221 54 239 62 8 3 18 7 22 7 3 1 10 4 14 8 4 5 14 8 21 8 8 0 35 10 61
22 26 12 50 21 55 20 4 -1 7 2 7 8 0 5 9 10 19 10 11 0 21 3 23 8 2 4 32 22
68 41 35 19 69 38 75 43 5 5 33 23 60 41 58 37 64 42 158 121 177 150 357 369
458 556 13 25 26 47 29 50 5 5 36 68 64 130 6 14 15 28 21 32 5 4 7 8 2 8 -4
0 1 17 12 37 23 46 108 296 115 338 2 17 5 30 6 30 1 0 3 7 5 15 2 8 6 26 9
40 12 51 25 116 31 160 8 49 10 65 19 153 3 32 8 62 11 67 3 5 1 11 -5 15 -6
4 -7 13 -2 23 14 28 2 467 -13 492 -2 4 -7 33 -10 66 -4 32 -8 61 -10 65 -2 3
-7 20 -10 38 -3 17 -12 60 -21 94 -8 34 -17 70 -19 80 -2 9 -6 21 -9 25 -3 5
-7 19 -10 33 -2 13 -17 58 -31 99 -77 217 -181 416 -309 595 -93 128 -216 262
-326 355 -22 19 -47 40 -53 45 -34 29 -156 115 -162 115 -5 0 -16 6 -24 14
-23 20 -157 90 -226 119 -94 38 -100 40 -105 42 -3 1 -37 11 -75 23 -39 12
-79 23 -90 25 -11 2 -31 7 -45 10 -116 29 -396 42 -530 24 -30 -4 -73 -10 -95
-13 -66 -9 -224 -54 -315 -89 -93 -36 -231 -104 -241 -118 -3 -5 -9 -8 -13 -8
-8 1 -111 -65 -151 -96 -16 -13 -35 -27 -40 -31 -108 -78 -267 -239 -359 -362
-22 -30 -44 -57 -47 -60 -10 -9 -98 -148 -111 -174 -6 -14 -15 -26 -20 -26 -4
0 -8 -9 -8 -19 0 -11 -4 -22 -9 -25 -9 -6 -59 -106 -95 -191 -10 -22 -21 -49
-26 -60 -39 -86 -94 -268 -116 -375 -3 -14 -11 -56 -19 -95 -14 -71 -19 -104
-32 -230 -10 -87 -9 -419 1 -500 10 -86 16 -125 21 -149 2 -12 7 -39 10 -61 7
-49 30 -146 57 -240 11 -38 21 -74 23 -80 2 -11 12 -38 25 -70 4 -11 18 -47
31 -80 77 -204 209 -427 376 -635 39 -48 180 -188 232 -230 24 -19 48 -40 55
-46 6 -6 56 -41 111 -79 55 -37 101 -71 103 -74 1 -4 -15 -30 -35 -58 -21 -28
-44 -59 -50 -70 -7 -10 -39 -55 -70 -100 -32 -46 -78 -112 -103 -149 -25 -36
-50 -71 -56 -77 -6 -7 -19 -25 -30 -42 -10 -16 -23 -34 -27 -40 -38 -47 -276
-397 -286 -422 -63 -153 55 -332 221 -334 30 -1 71 6 91 15 21 8 38 15 40 15
1 0 34 14 72 32 61 28 242 93 270 98 6 0 24 5 40 11 17 5 41 11 55 14 14 2 43
9 65 14 44 12 84 21 130 27 36 6 89 14 130 21 198 33 672 39 870 10 17 -3 53
-7 80 -10 28 -3 75 -10 105 -16 30 -6 67 -13 81 -15 54 -8 260 -57 340 -81 46
-13 93 -26 104 -28 54 -10 89 -17 94 -21 6 -3 37 -8 123 -20 217 -31 465 -21
698 27 122 25 113 23 195 49 39 13 73 23 77 23 3 1 10 4 14 9 4 4 15 7 23 7
19 0 139 49 256 105 44 21 83 38 88 37 4 -1 7 2 7 8 0 5 4 10 9 10 5 0 47 22
93 48 46 27 94 55 108 63 14 8 27 16 30 19 3 3 38 28 79 55 40 28 83 57 95 65
29 20 150 113 156 120 3 3 34 29 70 59 125 105 400 394 400 420 0 6 4 11 9 11
27 0 31 107 30 768 0 631 -2 684 -20 777 -11 55 -21 108 -22 118 0 9 -5 17
-10 17 -4 0 -6 4 -3 8 4 8 -24 112 -41 152 -3 8 -7 17 -8 20 -7 29 -51 129
-80 185 -99 187 -238 355 -385 468 -30 23 -56 45 -58 50 -2 4 -7 7 -12 7 -4 0
-33 15 -63 33 l-56 34 76 124 c41 68 104 185 140 259 36 74 69 143 74 152 5
10 9 25 9 33 0 8 4 15 8 15 5 0 9 6 9 13 1 6 15 53 33 102 18 50 34 97 35 105
2 8 4 16 5 18 2 1 3 5 4 10 1 4 12 50 25 102 13 52 25 104 26 115 1 11 3 20 5
20 1 0 3 16 5 35 1 19 6 55 9 80 4 25 8 70 10 102 2 31 7 61 10 67 4 6 3 11
-1 11 -5 0 -6 24 -3 54 3 30 2 64 -2 76 -5 15 -4 19 4 14 7 -4 8 -3 4 4 -4 7
-9 38 -11 69 -10 142 -42 315 -82 433 -14 41 -26 80 -27 85 -7 35 -164 353
-186 375 -3 3 -31 44 -63 92 -32 48 -68 98 -80 111 -12 13 -40 46 -62 72 -117
142 -325 330 -520 467 -60 43 -114 81 -120 86 -29 21 -217 132 -224 132 -5 0
-11 4 -13 8 -5 13 -496 252 -517 252 -4 0 -21 6 -37 14 -16 8 -45 20 -64 29
-102 42 -222 98 -365 170 -190 95 -186 93 -299 162 -49 30 -93 55 -97 55 -5 0
-9 3 -9 8 0 4 -16 16 -35 26 -19 11 -35 23 -35 28 0 4 -7 8 -15 8 -8 0 -25 11
-39 25 -14 14 -29 25 -33 25 -4 0 -22 13 -40 28 -17 15 -50 43 -74 62 -98 80
-269 270 -269 299 0 6 -4 11 -9 11 -18 0 -64 135 -67 200 -4 79 -5 86 -28 130
-22 41 -65 84 -109 106 -44 23 -180 28 -234 8z m372 -3913 c33 -6 71 -13 84
-16 142 -27 359 -137 501 -253 131 -107 295 -300 361 -422 13 -25 27 -47 30
-50 28 -21 164 -364 183 -460 3 -14 10 -43 15 -65 6 -22 10 -40 10 -40 -1 0 2
-16 6 -35 34 -186 38 -475 9 -685 -4 -32 -42 -210 -59 -275 -8 -32 -48 -147
-62 -180 -143 -326 -292 -525 -539 -720 -140 -110 -371 -208 -555 -236 -48 -7
-209 -13 -209 -8 0 7 24 46 42 68 37 45 129 183 145 216 47 100 13 229 -80
307 -23 19 -119 44 -152 39 -64 -8 -105 -19 -105 -27 0 -5 -6 -9 -14 -9 -17 0
-62 -50 -117 -132 -23 -35 -45 -65 -49 -68 -3 -3 -24 -31 -45 -64 -46 -67 -58
-84 -103 -148 l-32 -47 -47 26 c-26 14 -52 30 -57 34 -6 5 -47 35 -91 68 -97
72 -234 215 -321 336 -88 124 -231 417 -250 512 -2 12 -9 34 -14 48 -5 14 -7
25 -5 25 3 0 -2 16 -10 37 -8 20 -13 38 -11 40 2 3 0 19 -5 36 -6 18 -12 48
-15 67 -3 19 -7 46 -10 60 -24 124 -24 449 1 620 16 104 70 319 95 375 5 11
12 31 15 45 10 36 97 214 141 290 36 62 45 74 70 103 6 7 13 17 15 23 19 50
241 273 344 345 147 103 359 199 450 204 6 0 15 3 20 7 6 3 39 9 75 13 36 4
66 8 68 10 7 7 222 -4 277 -14z"/>
</g>
</svg>
